<svg width="156" height="100" viewBox="0 0 156 100" fill="none" xmlns="http://www.w3.org/2000/svg">
<mask id="mask0" style="mask-type:alpha" maskUnits="userSpaceOnUse" x="0" y="0" width="156" height="100">
<rect width="156" height="100" fill="black"/>
</mask>
<g mask="url(#mask0)">
<path d="M150.668 121.796C139.319 138.297 118.086 151.094 76.3136 151.846C75.8299 151.856 75.3473 151.861 74.8553 151.867C61.7999 152.011 46.761 151 29.4412 148.582C24.5683 147.902 20.1114 146.247 16.0477 143.844C15.5443 143.554 15.0461 143.242 14.5583 142.921C8.4456 138.95 3.26691 133.289 -1.07137 126.778C-1.72976 125.797 -2.36838 124.79 -2.9862 123.768C-8.70471 114.339 -12.7934 103.52 -15.508 93.6455C-16.2548 91.0505 -17.0016 88.0362 -17.6569 84.7464V84.7412C-17.7557 84.2586 -17.8535 83.7708 -17.9419 83.2778C-19.0985 77.1287 -19.9389 70.1287 -19.9961 63.1288C-20.0013 62.693 -20.0013 62.252 -19.9961 61.8162C-19.9233 49.0666 -17.167 36.5042 -8.92313 29.2754C-8.36771 28.7824 -7.78109 28.3206 -7.17367 27.8848C-3.82245 25.4666 0.314052 23.8419 5.37833 23.2709C14.6301 22.1601 22.0668 29.498 30.4054 29.0456C30.8724 29.0196 31.3456 28.9728 31.8168 28.8906C33.2594 28.6618 34.7332 28.174 36.2476 27.3544C45.7854 21.9063 52.1425 9.64969 59.858 1.92794C72.7273 -11.6569 94.3189 -15.9473 110.68 -8.07581C111.23 -7.81682 111.775 -7.53599 112.314 -7.2354C116.098 -5.18535 119.558 -2.44571 122.516 1.02096C127.025 6.06028 129.983 11.8766 131.394 18.1037C131.514 18.6279 131.623 19.1625 131.721 19.6961C132.437 23.6402 132.547 27.7392 132.048 31.8955C131.841 34.5165 131.341 37.1106 130.719 39.6952C130.605 40.1622 130.491 40.6292 130.367 41.0952C128.285 49.2476 125.276 57.3583 126.599 65.9517C128.379 77.3159 135.98 80.6213 143.557 85.6492C144.065 85.9862 144.574 86.3346 145.082 86.6872C146.681 87.8085 148.258 89.0379 149.758 90.4649C158.383 99.0947 157.475 112.259 150.668 121.796Z" fill="#787E91"/>
<path d="M28.6975 38.4699C26.2689 40.7114 22.9281 40.416 20.022 39.3363C15.9594 37.8261 12.3315 35.3413 8.70462 33.0156C4.95296 30.6088 1.24394 28.0553 -3.43758 28.3975C-13.9239 29.1599 -6.41645 44.4162 -4.97798 50.0567C-3.9982 53.9072 -3.84634 58.7114 -7.1882 61.5249C-10.9659 64.7056 -15.7098 64.7056 -19.9961 63.1288C-20.0013 62.693 -20.0013 62.252 -19.9961 61.8162C-18.3246 62.5276 -16.5866 62.9364 -14.7487 62.7918C-10.7433 62.4704 -6.45077 60.7001 -5.89119 56.1809C-5.6166 53.9498 -5.92239 51.8686 -6.54542 49.7364C-7.71346 45.7049 -9.28506 41.74 -9.98505 37.5838C-10.4261 34.9689 -10.7318 31.4866 -8.92206 29.2764C-8.70884 29.0164 -8.46545 28.773 -8.18983 28.5494C-7.87259 28.2946 -7.5356 28.0772 -7.17156 27.8858C-4.34871 26.3756 -0.301662 26.6814 2.48998 27.8494C6.18964 29.395 9.47014 31.8704 12.8578 33.9829C16.1476 36.0319 20.7043 39.2396 24.819 38.731C29.073 38.2068 30.6977 32.9043 30.4075 29.0476C30.8745 29.0216 31.3477 28.9748 31.8189 28.8926C32.0404 32.1762 31.1324 36.2129 28.6975 38.4699Z" fill="#EBEBEB"/>
<path d="M112.315 -7.23541C109.331 -5.37778 106.073 -4.14317 102.58 -4.05996C98.9213 -3.97156 96.4407 -5.21656 93.2548 -6.84641C90.2926 -8.35664 84.0135 -11.5321 83.3124 -5.9748C82.6073 -0.386308 85.1181 4.77678 85.7567 10.2051C86.5087 16.6132 87.0381 24.2517 81.0502 28.5224C75.9963 32.1233 69.6704 31.9943 64.5697 28.5952C61.2955 26.411 57.6322 23.1887 53.3813 24.2413C51.2439 24.7707 49.5943 26.203 49.0638 28.3924C46.8702 37.4673 52.7541 46.7877 53.8535 55.6557C54.2748 59.0495 53.4177 63.5376 50.8029 65.9558C48.3732 68.2035 45.0324 67.9071 42.1263 66.8223C38.0626 65.312 34.4358 62.8324 30.8089 60.5078C27.0521 58.0999 23.3472 55.5475 18.6657 55.8845C8.17413 56.6531 15.6816 71.9042 17.1253 77.5489C18.1061 81.3941 18.2517 86.2046 14.9151 89.0119C10.011 93.1317 3.50405 91.9179 -1.54462 88.8517C-4.75127 86.9057 -7.95271 83.8498 -11.8344 83.4556C-13.9458 83.2372 -15.9595 83.6938 -17.6569 84.7422C-17.7557 84.2596 -17.8535 83.7718 -17.9419 83.2788C-15.041 81.675 -11.4558 81.3941 -8.38852 82.9512C-3.46882 85.4474 1.43944 90.7499 7.35557 90.2787C11.3621 89.9615 15.6483 88.1923 16.2131 83.673C16.4877 81.4409 16.1767 79.3555 15.5589 77.2233C14.3908 73.1908 12.8182 69.227 12.1182 65.0759C11.6262 62.1542 11.2986 58.1374 13.9082 56.0415C16.6957 53.8053 21.4438 54.0227 24.588 55.3405C28.2877 56.882 31.5734 59.3616 34.9558 61.4688C38.2509 63.5241 42.8065 66.7307 46.9222 66.2221C51.4519 65.6615 52.9986 59.684 52.4327 55.819C51.7473 51.1333 50.0873 46.6182 48.9297 42.0417C47.4257 36.085 44.53 23.9678 53.7297 22.728C61.1655 21.7212 65.4517 30.0857 72.7938 29.8111C77.5783 29.6291 82.1506 27.1495 83.8939 22.4534C85.3573 18.5093 84.8019 14.4466 84.3349 10.3736C83.7743 5.45389 77.0437 -13.8598 88.9321 -10.2486C91.7092 -9.40819 94.1576 -7.88236 96.7683 -6.64775C99.6993 -5.26233 102.917 -5.11671 106.046 -6.07777C107.676 -6.58014 109.223 -7.26037 110.68 -8.07477C111.23 -7.81683 111.776 -7.536 112.315 -7.23541Z" fill="#EBEBEB"/>
<path d="M131.722 19.6961C129.289 20.9266 126.689 21.7046 123.943 21.7722C120.29 21.8606 117.81 20.6104 114.624 18.9857C111.655 17.4755 105.376 14.3001 104.675 19.8522C103.975 25.4406 106.486 30.61 107.125 36.0373C107.871 42.4464 108.407 50.0839 102.413 54.3546C97.3591 57.9554 91.0342 57.8264 85.9377 54.4274C82.6582 52.2431 78.9949 49.0199 74.7451 50.0735C72.6077 50.6029 70.958 52.0341 70.4276 54.2246C68.234 63.3005 74.1231 72.6199 75.2173 81.4826C75.6375 84.8817 74.7815 89.3708 72.1667 91.789C69.738 94.0357 66.3961 93.7351 63.4901 92.6554C59.4274 91.1452 55.7995 88.6646 52.1727 86.3347C48.4221 83.9321 44.712 81.3745 40.0315 81.7156C29.5441 82.4832 37.0527 97.7343 38.4901 103.375C39.4709 107.225 39.6217 112.036 36.2799 114.843C31.381 118.963 24.8689 117.749 19.8254 114.682C16.6187 112.736 13.4121 109.679 9.53042 109.279C5.97533 108.916 2.69172 110.457 0.765439 113.514C-1.80778 117.603 -2.06677 122.258 -1.07139 126.777C-1.72977 125.796 -2.3684 124.79 -2.98622 123.767C-3.52604 118.729 -2.46201 113.799 1.62665 110.342C4.73032 107.712 9.23399 106.882 12.9752 108.78C17.8949 111.276 22.8032 116.575 28.7183 116.108C32.7248 115.792 37.0163 114.022 37.5758 109.502C37.8504 107.271 37.5446 105.185 36.9216 103.052C35.7546 99.0209 34.1809 95.056 33.4809 90.8997C32.9879 87.9833 32.6603 83.9674 35.2772 81.8706C38.0636 79.6292 42.8065 79.8528 45.956 81.1654C49.6504 82.712 52.9351 85.1864 56.3227 87.2989C59.6126 89.3531 64.1693 92.5608 68.2839 92.0522C72.8136 91.4926 74.3592 85.5141 73.7934 81.648C73.11 76.9623 71.4531 72.4472 70.2903 67.8707C68.7863 61.9141 65.8959 49.7968 75.0904 48.5518C82.5271 47.5502 86.8186 55.9147 94.1555 55.6391C98.94 55.4581 103.512 52.9775 105.256 48.2814C106.719 44.3373 106.164 40.2694 105.697 36.1953C105.136 31.2808 98.4064 11.9629 110.294 15.5742C113.076 16.4198 115.525 17.9404 118.13 19.175C121.061 20.5667 124.279 20.7113 127.408 19.7513C128.798 19.3207 130.127 18.7652 131.393 18.1006C131.514 18.6269 131.623 19.1615 131.722 19.6961Z" fill="#EBEBEB"/>
<path d="M130.72 39.6952C130.606 40.1622 130.492 40.6292 130.368 41.0952C127.197 39.637 122.869 38.3244 122.299 42.88C121.592 48.4685 124.104 53.6316 124.743 59.0599C125.495 65.468 126.024 73.1066 120.031 77.3772C114.977 80.9781 108.657 80.8491 103.556 77.45C100.282 75.2658 96.6133 72.0436 92.3634 73.0962C90.2302 73.6256 88.5795 75.0578 88.0512 77.2472C85.8555 86.3232 91.7394 95.6436 92.8408 104.512C93.2548 107.904 92.3998 112.393 89.784 114.812C87.3553 117.059 84.0187 116.763 81.1074 115.678C77.0437 114.168 73.4179 111.688 69.7911 109.364C66.0394 106.956 62.3335 104.402 57.6489 104.74C47.1615 105.509 54.67 120.759 56.1074 126.405C57.0882 130.25 57.2391 135.059 53.8972 137.872C48.9993 141.988 42.4914 140.773 37.4427 137.706C34.235 135.76 31.0284 132.705 27.1477 132.309C23.5927 131.945 20.308 133.483 18.3828 136.538C16.9339 138.837 16.2194 141.313 16.0477 143.844C15.5443 143.554 15.0461 143.242 14.5583 142.921C14.8495 139.299 16.2142 135.931 19.244 133.367C22.3477 130.741 26.8565 129.906 30.5978 131.805C35.5123 134.301 40.4216 139.604 46.3367 139.132C50.3431 138.816 54.6336 137.046 55.1942 132.527C55.475 130.296 55.163 128.21 54.5452 126.077C53.373 122.045 51.8003 118.081 51.1056 113.93C50.6115 111.008 50.2807 106.992 52.8956 104.895C55.682 102.659 60.4301 102.876 63.5754 104.195C67.275 105.737 70.5587 108.217 73.9432 110.324C77.2382 112.379 81.7939 115.586 85.9033 115.077C90.434 114.516 91.9807 108.539 91.4149 104.673C90.7346 99.9871 89.0746 95.473 87.918 90.8955C86.4078 84.9388 83.5173 72.8216 92.7129 71.5818C100.154 70.5749 104.44 78.9405 111.778 78.6649C116.561 78.4829 121.134 76.0033 122.877 71.3072C124.346 67.3641 123.79 63.3004 123.324 59.2274C122.758 54.3087 116.028 34.994 127.916 38.6052C128.884 38.8954 129.812 39.275 130.72 39.6952Z" fill="#EBEBEB"/>
<path d="M140.087 102.176C135.033 105.782 128.707 105.652 123.606 102.253C120.333 100.069 116.669 96.8417 112.42 97.8995C110.282 98.4289 108.632 99.8611 108.102 102.045C105.907 111.126 111.792 120.441 112.891 129.309C113.311 132.708 112.455 137.192 109.841 139.615C107.412 141.856 104.07 141.561 101.164 140.481C97.1013 138.972 93.4734 136.486 89.8414 134.162C86.0907 131.754 82.3848 129.2 77.7044 129.543C67.2118 130.311 74.7203 145.561 76.1629 151.202C76.2149 151.415 76.2669 151.627 76.3137 151.846C75.8301 151.856 75.3475 151.861 74.8555 151.866C74.7775 151.539 74.6901 151.207 74.5965 150.88C73.4285 146.849 71.8558 142.884 71.1559 138.728C70.6628 135.806 70.3363 131.795 72.9469 129.693C75.7334 127.457 80.4814 127.68 83.6309 128.993C87.3253 130.54 90.61 133.014 93.9924 135.127C97.2885 137.176 101.844 140.383 105.959 139.874C110.489 139.319 112.036 133.341 111.47 129.47C110.785 124.784 109.124 120.274 107.967 115.698C106.462 109.741 103.567 97.6197 112.761 96.3799C120.203 95.3783 124.489 103.738 131.83 103.462C136.61 103.285 141.187 100.806 142.93 96.1032C144.202 92.6896 143.953 89.1761 143.559 85.6481C144.066 85.9851 144.575 86.3335 145.083 86.6861C145.562 92.3952 145.213 98.5235 140.087 102.176Z" fill="#EBEBEB"/>
<path d="M116.071 93.0195C116.071 93.0195 121.852 101.31 121.225 105.993C120.716 109.792 117.587 114.477 99.0202 136.434C96.686 139.193 94.5487 140.425 92.2753 140.425C92.2753 140.425 91.2903 140.925 90.229 138.513C89.1696 136.1 88.8651 135.601 86.9697 137.763C85.0761 139.925 84.7726 141.257 83.3334 139.843C81.8941 138.429 78.6348 136.35 78.8619 134.022C78.8619 134.022 76.0578 133.19 78.0277 130.944C79.9976 128.698 81.8921 126.703 85.8339 126.703C89.7737 126.703 91.4421 128.449 93.8673 131.11C93.8673 131.11 99.0202 123.875 103.567 115.891C108.114 107.906 106.37 106.41 105.233 105.993L116.071 93.0195Z" fill="#EB986A"/>
<path d="M21.005 93.0195C21.005 93.0195 15.2235 101.31 15.8511 105.993C16.3612 109.792 19.4894 114.477 38.0557 136.434C40.3898 139.193 42.5281 140.425 44.8005 140.425C44.8005 140.425 45.7865 140.925 46.8458 138.513C47.9072 136.1 48.2107 135.601 50.1052 137.763C51.9997 139.925 52.3042 141.257 53.7434 139.843C55.1827 138.429 58.442 136.35 58.2139 134.022C58.2139 134.022 61.016 133.19 59.0461 130.944C57.0762 128.698 55.1817 126.703 51.2419 126.703C47.3011 126.703 45.6328 128.449 43.2086 131.11C43.2086 131.11 38.0547 123.875 33.5078 115.891C28.96 107.906 30.7038 106.41 31.8405 105.993L21.005 93.0195Z" fill="#EB986A"/>
<path d="M103.032 70.908C99.2315 63.7974 76.4297 56.924 76.4297 56.924L68.4992 54.4117L60.5687 56.924C60.5687 56.924 37.7659 63.7974 33.9651 70.908C30.1663 78.0185 43.1655 139.331 43.1675 152.564C43.1675 152.564 43.1675 152.565 43.1675 152.566C43.1675 154.358 53.3254 155.811 68.4992 155.811C83.671 155.811 93.8309 154.36 93.8309 152.568C93.8299 139.338 106.832 78.0195 103.032 70.908Z" fill="#4F70A1"/>
<path d="M60.5468 42.1805L59.5452 57.6715C59.5452 61.0127 63.5545 63.7228 68.4979 63.7228C73.4403 63.7228 77.4477 61.0127 77.4477 57.6715L76.448 42.1805H60.5468Z" fill="#EB986A"/>
<path d="M67.5317 49.7792C69.4742 50.2994 71.5136 50.5983 73.5295 50.4631C74.5575 50.3955 76.0066 50.1329 76.9426 49.8036L76.4481 42.1797H60.547L60.3551 45.1711C62.2368 47.313 64.7178 49.0267 67.5317 49.7792Z" fill="#44312A"/>
<path d="M81.0283 28.6562C81.1106 28.133 81.2711 27.645 81.7245 27.2697C82.3755 26.7328 83.3067 26.7387 83.9391 27.2991C85.3432 28.5435 85.0073 31.5927 84.4091 33.1202C83.8745 34.4871 81.5032 36.5006 80.2627 34.7134C80.2627 34.7134 80.2 34.5899 80.2 34.5272C80.3527 33.5102 80.5074 32.4941 80.6553 31.478C80.7561 30.7853 80.8707 30.0945 80.9431 29.3979C80.9696 29.148 80.9901 28.8982 81.0283 28.6562Z" fill="#EB986A"/>
<path d="M55.9657 28.6562C55.8844 28.133 55.7229 27.645 55.2686 27.2697C54.6195 26.7328 53.6874 26.7387 53.0559 27.2991C51.6519 28.5435 51.9877 31.5927 52.585 33.1202C53.1205 34.4871 55.4908 36.5006 56.7323 34.7134C56.7323 34.7134 56.795 34.5899 56.795 34.5272C56.6432 33.5102 56.4866 32.4941 56.3397 31.478C56.2398 30.7853 56.1253 30.0945 56.0528 29.3979C56.0254 29.148 56.0029 28.8982 55.9657 28.6562Z" fill="#EB986A"/>
<path d="M68.4979 9.78302C61.0618 9.78302 55.0346 15.8158 55.0346 23.2575V24.9212V32.7783V34.4431C55.0346 41.8838 61.0628 47.9155 68.4979 47.9155C75.934 47.9155 81.9612 41.8838 81.9612 34.4431V32.7783V24.9212V23.2575C81.9612 15.8167 75.934 9.78302 68.4979 9.78302Z" fill="#EB986A"/>
<path d="M61.5484 29.8476C61.5484 30.4002 61.1009 30.85 60.5467 30.85C59.9945 30.85 59.5471 30.4012 59.5471 29.8476C59.5471 29.294 59.9945 28.8453 60.5467 28.8453C61.1009 28.8453 61.5484 29.295 61.5484 29.8476Z" fill="#44312A"/>
<path d="M58.3479 26.6133C58.3479 26.6133 58.3743 26.5496 58.4203 26.4399C58.433 26.4134 58.4468 26.383 58.4624 26.3497C58.4918 26.3086 58.5221 26.2635 58.5564 26.2165C58.6259 26.1204 58.7101 26.0117 58.8041 25.9294C58.8961 25.8353 59.0048 25.7422 59.1331 25.6609C59.2564 25.5717 59.3994 25.5041 59.5492 25.4336C59.7039 25.3807 59.8615 25.316 60.0319 25.2886C60.2003 25.2504 60.3746 25.2445 60.5469 25.2327C60.8954 25.2376 61.243 25.3023 61.5475 25.4267C61.6973 25.4983 61.8441 25.56 61.9646 25.6531C62.0928 25.7354 62.2044 25.8245 62.2945 25.9235C62.3934 26.0107 62.4659 26.1077 62.5266 26.1949C62.5922 26.2792 62.6392 26.3576 62.6695 26.4281C62.7361 26.5633 62.7655 26.6417 62.7655 26.6417C62.8643 26.8984 62.7371 27.1865 62.4805 27.2845C62.3337 27.3423 62.1761 27.3246 62.0498 27.2492L61.9225 27.1728C61.9225 27.1728 61.8755 27.1443 61.804 27.0934C61.7374 27.0385 61.6297 26.9788 61.5083 26.916C61.4476 26.8837 61.3791 26.8543 61.3057 26.8279C61.2371 26.7936 61.15 26.7838 61.0746 26.7514C60.9884 26.7387 60.9062 26.7132 60.8181 26.7064C60.7309 26.6848 60.6379 26.6975 60.5469 26.6838C60.3648 26.6858 60.1856 26.7093 60.0182 26.7446C59.9418 26.7779 59.8527 26.7828 59.7851 26.82C59.7127 26.8494 59.6422 26.8739 59.5815 26.9102C59.5267 26.9386 59.4767 26.9641 59.4307 26.9885C59.4102 26.9993 59.3886 27.0091 59.3681 27.0179C59.3426 27.0405 59.3172 27.062 59.2946 27.0807C59.2036 27.159 59.1527 27.2021 59.1527 27.2021C58.9363 27.3864 58.6132 27.3589 58.4301 27.1434C58.3009 26.9915 58.2764 26.7857 58.3479 26.6133Z" fill="#44312A"/>
<path d="M74.2491 26.6132C74.2491 26.6132 74.2746 26.5495 74.3226 26.4398C74.3343 26.4133 74.348 26.383 74.3627 26.3497C74.3921 26.3085 74.4244 26.2634 74.4577 26.2164C74.5282 26.1204 74.6124 26.0116 74.7064 25.9293C74.7994 25.8353 74.908 25.7422 75.0353 25.6608C75.1587 25.5717 75.3026 25.5041 75.4514 25.4335C75.6042 25.3806 75.7647 25.316 75.9331 25.2885C76.1015 25.2503 76.2748 25.2444 76.4491 25.2327C76.7957 25.2376 77.1452 25.3022 77.4488 25.4267C77.5986 25.4982 77.7454 25.5599 77.8668 25.653C77.9941 25.7353 78.1047 25.8245 78.1958 25.9234C78.2937 26.0106 78.3671 26.1076 78.4288 26.1948C78.4944 26.2791 78.5404 26.3575 78.5718 26.428C78.6383 26.5633 78.6697 26.6416 78.6697 26.6416C78.7676 26.8983 78.6403 27.1864 78.3848 27.2844C78.2369 27.3422 78.0793 27.3246 77.953 27.2491L77.8267 27.1727C77.8267 27.1727 77.7777 27.1443 77.7072 27.0933C77.6407 27.0385 77.533 26.9787 77.4106 26.916C77.3508 26.8836 77.2823 26.8543 77.2089 26.8278C77.1413 26.7935 77.0542 26.7837 76.9778 26.7514C76.8926 26.7386 76.8114 26.7132 76.7203 26.7063C76.6332 26.6847 76.5411 26.6975 76.4511 26.6838C76.269 26.6857 76.0878 26.7092 75.9204 26.7445C75.844 26.7778 75.755 26.7827 75.6874 26.82C75.6159 26.8494 75.5444 26.8739 75.4857 26.9101C75.4299 26.9385 75.379 26.964 75.3339 26.9885C75.3134 26.9993 75.2918 27.0091 75.2713 27.0179C75.2448 27.0404 75.2204 27.062 75.1988 27.0806C75.1078 27.159 75.0559 27.2021 75.0559 27.2021C74.8405 27.3863 74.5164 27.3589 74.3343 27.1433C74.2021 26.9914 74.1767 26.7857 74.2491 26.6132Z" fill="#44312A"/>
<path d="M77.4497 29.8476C77.4497 30.4002 77.0022 30.85 76.449 30.85C75.8968 30.85 75.4474 30.4012 75.4474 29.8476C75.4474 29.294 75.8968 28.8453 76.449 28.8453C77.0012 28.8453 77.4497 29.295 77.4497 29.8476Z" fill="#44312A"/>
<path d="M55.0316 31.145C55.0316 31.145 57.2316 29.2245 57.0769 20.1181L55.0316 17.6235C55.0316 17.6235 53.2047 23.0233 55.0316 31.145Z" fill="#44312A"/>
<path d="M81.9632 31.145C81.9632 31.145 79.7641 29.2246 79.9188 20.1182L81.9632 17.6235C81.9632 17.6235 83.7912 23.0233 81.9632 31.145Z" fill="#44312A"/>
<path d="M57.0781 20.118C57.0781 20.118 57.7429 16.0635 63.8514 16.0635C69.9599 16.0635 74.5723 16.0635 74.5723 16.0635C74.5723 16.0635 78.8107 16.3134 80.0581 20.555L81.9644 17.6234C81.9644 17.6234 81.2751 11.3643 78.1587 10.7402C78.1587 10.7402 75.7217 5.75781 65.0273 6.74841C58.2971 7.37255 57.923 10.99 57.923 10.99C57.923 10.99 55.2218 11.5721 54.4826 20.2229L57.0781 20.118Z" fill="#44312A"/>
<path d="M75.0988 15.9578C75.0988 15.9578 73.7692 19.7458 64.7108 22.1581V20.8275C64.7108 20.8275 63.0483 22.2002 60.5546 22.7205C58.0619 23.2398 55.7356 25.0613 55.6524 27.1855L56.7959 14.3636L75.7636 11.2635L75.0988 15.9578Z" fill="#44312A"/>
<path d="M69.0445 36.4389L67.6757 35.417L69.3186 32.1561" stroke="#44312A" stroke-miterlimit="10" stroke-linecap="round" stroke-linejoin="round"/>
<path d="M71.0727 40.0807C69.9311 41.8963 67.0644 41.8963 65.9238 40.0807" stroke="#44312A" stroke-miterlimit="10" stroke-linecap="round" stroke-linejoin="round"/>
<path d="M68.4979 73.5357C68.5087 73.522 77.4496 63.4475 77.4496 57.6715L68.4979 62.3707L59.5452 57.6715C59.5452 63.4485 68.4861 73.522 68.4969 73.5357V73.5367L68.4979 73.5357V73.5367V73.5357Z" fill="#EB986A"/>
<path d="M103.032 70.908C103.032 70.908 115.313 85.8659 119.102 92.3533C119.102 92.3533 115.16 101.668 105.915 107.657L95.3053 96.6342L103.032 70.908Z" fill="#4F70A1"/>
<path d="M33.9641 70.908C33.9641 70.908 21.7628 85.8659 17.9738 92.3533C17.9738 92.3533 21.9146 101.668 31.16 107.657L41.7694 96.6342L33.9641 70.908Z" fill="#4F70A1"/>
<path d="M59.7569 54.4117C59.7569 54.4117 56.4525 56.2068 55.6535 58.5603C55.6535 58.5603 56.5504 67.8999 58.9011 72.2238C58.9011 72.2238 59.5512 66.9162 64.7658 68.8219C64.7648 68.8219 59.7569 61.5517 59.7569 54.4117Z" fill="#324C66"/>
<path d="M77.2277 54.4117C77.2277 54.4117 80.5331 56.2068 81.331 58.5603C81.331 58.5603 80.4342 67.8999 78.0825 72.2238C78.0825 72.2238 77.4324 66.9162 72.2178 68.8219C72.2188 68.8219 77.2277 61.5517 77.2277 54.4117Z" fill="#324C66"/>
<path d="M83.5789 18.4867C83.5789 21.63 82.8358 25.8403 68.4972 25.8403C54.1606 25.8403 53.4174 21.629 53.4174 18.4867C53.4174 15.3445 60.1692 12.796 68.4972 12.796C76.8272 12.796 83.5789 15.3445 83.5789 18.4867Z" fill="#4F70A1"/>
<path d="M80.9591 7.73809C80.2218 6.84058 78.7875 5.80589 77.7702 5.44238L70.3478 2.77727C69.3295 2.41376 67.6661 2.41376 66.6478 2.77727L59.2264 5.44238C58.2092 5.80589 56.7738 6.84058 56.0366 7.73809L53.4812 10.8568C52.7449 11.7563 52.7283 13.2427 53.4459 14.1637L54.3653 15.3425C55.0829 16.2625 56.5388 16.9699 57.6031 16.9151L66.5646 16.4496C67.6289 16.3938 69.3687 16.3938 70.432 16.4496L79.3945 16.9151C80.4578 16.969 81.9146 16.2625 82.6313 15.3425L83.5507 14.1637C84.2684 13.2437 84.2527 11.7563 83.5164 10.8568L80.9591 7.73809Z" fill="#4F70A1"/>
<path d="M84.5826 17.788C85.2621 18.6062 84.9478 19.2774 83.8835 19.2774H53.111C52.0468 19.2774 51.7325 18.6062 52.413 17.788L53.4361 16.5544C54.1156 15.7343 55.5421 15.0651 56.6073 15.0651H80.3862C81.4495 15.0651 82.877 15.7343 83.5575 16.5544L84.5826 17.788Z" fill="#324B66"/>
<path d="M66.6978 14.0266C66.0771 14.0266 65.4113 13.5426 65.2184 12.9508L64.1082 9.5263C63.9153 8.93351 64.1698 8.15064 64.6721 7.78517L67.5829 5.66778C68.0862 5.30231 68.9096 5.30231 69.4109 5.66778L72.3226 7.78517C72.8259 8.15064 73.0805 8.93351 72.8876 9.5263L71.7753 12.9508C71.5844 13.5426 70.9186 14.0266 70.2959 14.0266H66.6978Z" fill="#F5C912"/>
<path d="M67.0305 13.2291C66.5233 13.2291 65.9819 12.8342 65.8242 12.3521L64.9186 9.55868C64.761 9.07661 64.9695 8.43875 65.3787 8.1399L67.752 6.41346C68.1632 6.11462 68.8329 6.11462 69.2422 6.41346L71.6155 8.1399C72.0267 8.43777 72.2342 9.07661 72.0776 9.55868L71.17 12.3521C71.0143 12.8342 70.4709 13.2291 69.9647 13.2291H67.0305Z" fill="#FDC500"/>
<path d="M87.6801 84.3697L89.276 87.605L92.8408 88.1234L90.26 90.6405L90.8699 94.1953L87.6801 92.5168L84.4903 94.1953L85.1003 90.6405L82.5194 88.1234L86.0852 87.605L87.6801 84.3697Z" fill="#F5C912"/>
</g>
</svg>
