<svg width="156" height="100" viewBox="0 0 156 100" fill="none" xmlns="http://www.w3.org/2000/svg">
<mask id="mask0" style="mask-type:alpha" maskUnits="userSpaceOnUse" x="0" y="0" width="156" height="100">
<rect width="156" height="100" fill="black"/>
</mask>
<g mask="url(#mask0)">
<path d="M150.667 118.462C139.319 134.181 118.087 146.373 76.3146 147.089C75.8309 147.099 75.3483 147.104 74.8564 147.109C61.8012 147.247 46.7625 146.284 29.4429 143.98C24.5701 143.332 20.1133 141.755 16.0497 139.467C15.5463 139.19 15.0481 138.894 14.5603 138.587C8.44769 134.805 3.26908 129.411 -1.06913 123.208C-1.72751 122.274 -2.36613 121.315 -2.98394 120.341C-8.70235 111.359 -12.7909 101.052 -15.5056 91.6446C-16.2524 89.1724 -16.9991 86.3008 -17.6544 83.1668V83.1618C-17.7532 82.702 -17.851 82.2363 -17.9394 81.7677C-19.096 75.9087 -19.9364 69.2402 -19.9936 62.5717C-19.9988 62.1565 -19.9988 61.7364 -19.9936 61.3212C-19.9208 49.1753 -17.1645 37.2066 -8.92077 30.3211C-8.36536 29.8525 -7.77875 29.4115 -7.17134 28.9964C-3.82017 26.6926 0.316265 25.1449 5.38046 24.6009C14.6321 23.5427 22.0687 30.5332 30.4071 30.1041C30.8741 30.0794 31.3473 30.0348 31.8185 29.9555C33.2611 29.7385 34.7349 29.2738 36.2493 28.493C45.7869 23.3029 52.1439 11.6256 59.8593 4.27041C72.7284 -8.67321 94.3196 -12.7605 110.68 -5.26168C111.23 -5.01495 111.775 -4.74742 112.314 -4.46007C116.098 -2.50807 119.558 0.101857 122.516 3.40539C127.025 8.20512 129.983 13.747 131.395 19.6793C131.514 20.1787 131.623 20.687 131.721 21.1963C132.437 24.9536 132.547 28.8586 132.048 32.8191C131.841 35.3151 131.342 37.7863 130.72 40.2486C130.605 40.6935 130.491 41.1384 130.367 41.5823C128.285 49.3487 125.276 57.0754 126.599 65.2619C128.379 76.088 135.98 79.237 143.557 84.0278C144.065 84.3479 144.574 84.6808 145.082 85.0167C146.681 86.0848 148.258 87.256 149.757 88.6155C158.383 96.8347 157.475 109.376 150.667 118.462Z" fill="#F29D85"/>
<path d="M28.6967 39.0796C26.2681 41.2149 22.9274 40.9335 20.0214 39.905C15.9588 38.4663 12.3309 36.0981 8.70414 33.8845C4.95254 31.5907 1.24357 29.1581 -3.43787 29.4841C-13.9241 30.2104 -6.41669 44.7444 -4.97824 50.1178C-3.99848 53.786 -3.84663 58.3628 -7.18843 61.0421C-10.966 64.0721 -15.7099 64.0721 -19.9961 62.57C-20.0013 62.1548 -20.0013 61.7347 -19.9961 61.3195C-18.3247 61.9963 -16.5867 62.3866 -14.7488 62.2489C-10.7435 61.9427 -6.45101 60.2573 -5.89144 55.951C-5.61686 53.8256 -5.92264 51.8429 -6.54566 49.8116C-7.71368 45.971 -9.28526 42.1939 -9.98524 38.2344C-10.4262 35.7434 -10.732 32.426 -8.92226 30.3204C-8.70905 30.0727 -8.46566 29.8408 -8.19004 29.6278C-7.87281 29.385 -7.53582 29.1779 -7.17179 28.9956C-4.34899 27.5569 -0.302 27.8492 2.4896 28.9609C6.1892 30.4343 9.46964 32.7916 12.8572 34.804C16.147 36.756 20.7037 39.8118 24.8182 39.3273C29.0722 38.8279 30.6968 33.7755 30.4067 30.1034C30.8737 30.0786 31.3469 30.034 31.8181 29.9548C32.0396 33.0839 31.1316 36.9294 28.6967 39.0796Z" fill="white"/>
<path d="M112.313 -4.46289C109.328 -2.69321 106.071 -1.51706 102.578 -1.43779C98.9193 -1.35357 96.4387 -2.53963 93.2529 -4.09231C90.2907 -5.53104 84.0117 -8.55713 83.3106 -3.26197C82.6055 2.06193 85.1162 6.98057 85.7549 12.1509C86.5068 18.2556 87.0362 25.5325 81.0484 29.6019C75.9946 33.0323 69.6688 32.9094 64.5682 29.6703C61.294 27.5895 57.6308 24.5198 53.38 25.5236C51.2426 26.0279 49.593 27.3923 49.0626 29.4781C46.869 38.1234 52.7528 47.0025 53.8522 55.4505C54.2734 58.6837 53.4164 62.9593 50.8016 65.263C48.3719 67.4033 45.0312 67.1219 42.1252 66.0884C38.0615 64.6497 34.4347 62.2875 30.8079 60.0729C27.0511 57.7801 23.3463 55.3475 18.6649 55.6685C8.17351 56.4008 15.6809 70.9298 17.1245 76.3072C18.1053 79.9704 18.2509 84.5541 14.9143 87.2275C10.0103 91.1533 3.5035 89.9969 -1.54509 87.0749C-4.75169 85.221 -7.95308 82.3088 -11.8347 81.9333C-13.9461 81.7252 -15.9597 82.1602 -17.6571 83.16C-17.7559 82.7002 -17.8537 82.2345 -17.9421 81.7658C-15.0413 80.2379 -11.4561 79.9704 -8.38888 81.4537C-3.46926 83.8318 1.43893 88.8842 7.35496 88.4343C11.3614 88.1321 15.6476 86.4467 16.2124 82.1414C16.4869 80.015 16.176 78.0283 15.5581 75.9971C14.3901 72.1565 12.8175 68.3793 12.1175 64.4248C11.6256 61.6414 11.2979 57.8147 13.9075 55.8182C16.695 53.6878 21.443 53.8949 24.5872 55.1513C28.2868 56.6188 31.5724 58.982 34.9548 60.9885C38.2498 62.9464 42.8054 66.0012 46.921 65.5167C51.4506 64.9826 52.9972 59.2882 52.4314 55.6061C51.746 51.1423 50.086 46.841 48.9284 42.4812C47.4244 36.8055 44.5288 25.263 53.7284 24.0828C61.164 23.1227 65.4502 31.0922 72.7922 30.8296C77.5766 30.6572 82.1489 28.294 83.8921 23.8203C85.3555 20.0639 84.8001 16.1926 84.3331 12.3124C83.7724 7.62562 77.042 -10.7737 88.9302 -7.33342C91.7073 -6.5328 94.1557 -5.07921 96.7663 -3.90305C99.6973 -2.58323 102.915 -2.44451 106.044 -3.36006C107.674 -3.83865 109.22 -4.48667 110.677 -5.26251C111.228 -5.01678 111.774 -4.74925 112.313 -4.46289Z" fill="white"/>
<path d="M131.72 21.1943C129.288 22.3665 126.687 23.1077 123.942 23.1721C120.289 23.2573 117.808 22.0653 114.622 20.5176C111.654 19.0788 105.375 16.0537 104.674 21.343C103.974 26.6669 106.485 31.5915 107.123 36.7618C107.87 42.8675 108.406 50.1434 102.412 54.2118C97.3579 57.6422 91.0331 57.5193 85.9367 54.2812C82.6572 52.1994 78.994 49.1307 74.7442 50.1335C72.6069 50.6378 70.9573 52.0022 70.4268 54.088C68.2333 62.7342 74.1223 71.6124 75.2164 80.0555C75.6366 83.2936 74.7806 87.5702 72.1659 89.874C69.7372 92.0142 66.3954 91.7279 63.4894 90.6993C59.4268 89.2606 55.799 86.8964 52.1722 84.6779C48.4216 82.389 44.7116 79.9515 40.0312 80.2785C29.544 81.0097 37.0524 95.5377 38.4898 100.912C39.4706 104.58 39.6214 109.163 36.2796 111.837C31.3808 115.762 24.8688 114.605 19.8254 111.684C16.6188 109.83 13.4122 106.918 9.5306 106.537C5.97557 106.191 2.69201 107.659 0.76576 110.571C-1.80742 114.467 -2.0664 118.9 -1.07104 123.207C-1.72941 122.272 -2.36803 121.313 -2.98584 120.339C-3.52565 115.539 -2.46164 110.844 1.62695 107.551C4.73058 105.044 9.23417 104.253 12.9754 106.063C17.895 108.44 22.8032 113.487 28.7182 113.042C32.7246 112.741 37.016 111.056 37.5756 106.749C37.8502 104.624 37.5444 102.636 36.9214 100.605C35.7544 96.7644 34.1807 92.9873 33.4807 89.0278C32.9877 86.2494 32.6601 82.4237 35.277 80.4261C38.0634 78.2908 42.8062 78.5038 45.9556 79.7543C49.65 81.2277 52.9346 83.585 56.3222 85.5974C59.612 87.5544 64.1686 90.6102 68.2832 90.1256C72.8128 89.5916 74.3584 83.8971 73.7926 80.2131C73.1092 75.7492 71.4524 71.4479 70.2895 67.0891C68.7856 61.4134 65.8952 49.8709 75.0895 48.6848C82.5262 47.7306 86.8176 55.6991 94.1544 55.4375C98.9388 55.2651 103.511 52.9009 105.254 48.4282C106.718 44.6708 106.162 40.7946 105.695 36.9144C105.135 32.2325 98.4052 13.8293 110.292 17.2695C113.075 18.0761 115.523 19.5237 118.128 20.6999C121.059 22.0257 124.277 22.1634 127.406 21.2488C128.797 20.8386 130.125 20.3095 131.392 19.6773C131.512 20.1767 131.622 20.685 131.72 21.1943Z" fill="white"/>
<path d="M130.718 40.247C130.603 40.6919 130.489 41.1368 130.365 41.5807C127.194 40.1925 122.866 38.941 122.296 43.282C121.59 48.6059 124.102 53.5245 124.74 58.6958C125.492 64.8005 126.022 72.0774 120.029 76.1459C114.975 79.5772 108.654 79.4534 103.554 76.2152C100.28 74.1344 96.6112 71.0647 92.3614 72.0675C90.2282 72.5728 88.5776 73.9363 88.0492 76.022C85.8536 84.6683 91.7373 93.5474 92.8388 101.995C93.2528 105.228 92.3978 109.504 89.782 111.808C87.3534 113.949 84.0168 113.667 81.1056 112.633C77.0419 111.195 73.4162 108.832 69.7894 106.618C66.0378 104.324 62.3319 101.891 57.6474 102.213C47.1601 102.946 54.6685 117.475 56.106 122.852C57.0868 126.515 57.2376 131.097 53.8958 133.777C48.998 137.698 42.4901 136.541 37.4415 133.62C34.2339 131.766 31.0273 128.854 27.1467 128.478C23.5917 128.131 20.3071 129.595 18.3819 132.507C16.9331 134.697 16.2185 137.054 16.0469 139.467C15.5435 139.19 15.0453 138.894 14.5575 138.587C14.8487 135.137 16.2133 131.928 19.2431 129.486C22.3467 126.984 26.8555 126.188 30.5967 127.998C35.5111 130.376 40.4204 135.427 46.3354 134.978C50.3418 134.676 54.6321 132.991 55.1928 128.685C55.4736 126.559 55.1616 124.572 54.5437 122.541C53.3716 118.699 51.7989 114.923 51.1042 110.969C50.6101 108.185 50.2794 104.359 52.8942 102.362C55.6806 100.232 60.4286 100.439 63.5738 101.695C67.2734 103.163 70.557 105.527 73.9414 107.532C77.2364 109.49 81.792 112.545 85.9014 112.061C90.432 111.527 91.9786 105.832 91.4128 102.15C90.7326 97.6862 89.0726 93.3849 87.9161 89.0251C86.4058 83.3504 83.5154 71.8069 92.7109 70.6258C100.152 69.6666 104.438 77.6361 111.776 77.3736C116.559 77.2002 121.131 74.8379 122.875 70.3642C124.343 66.6078 123.788 62.7366 123.322 58.8563C122.756 54.1696 116.026 35.7703 127.914 39.2105C128.881 39.485 129.81 39.8467 130.718 40.247Z" fill="white"/>
<path d="M140.084 99.7702C135.03 103.205 128.704 103.083 123.604 99.8445C120.331 97.7627 116.666 94.688 112.418 95.6967C110.279 96.2011 108.63 97.5655 108.1 99.6463C105.905 108.298 111.789 117.171 112.889 125.619C113.309 128.857 112.453 133.129 109.838 135.437C107.41 137.573 104.068 137.291 101.162 136.263C97.0992 134.824 93.4714 132.456 89.8394 130.242C86.0888 127.948 82.383 125.516 77.7026 125.842C67.2101 126.574 74.7185 141.102 76.1611 146.475C76.2131 146.679 76.2652 146.88 76.312 147.089C75.8283 147.099 75.3457 147.104 74.8537 147.109C74.7757 146.796 74.6884 146.481 74.5948 146.169C73.4267 142.329 71.8541 138.552 71.1541 134.592C70.6611 131.81 70.3346 127.988 72.9452 125.985C75.7316 123.855 80.4796 124.067 83.629 125.319C87.3234 126.792 90.608 129.149 93.9904 131.162C97.2864 133.114 101.842 136.168 105.957 135.685C110.486 135.156 112.034 129.461 111.468 125.773C110.783 121.31 109.122 117.013 107.965 112.654C106.46 106.979 103.564 95.4312 112.759 94.2491C120.201 93.2959 124.487 101.258 131.828 100.997C136.607 100.828 141.184 98.4652 142.928 93.9865C144.2 90.7345 143.95 87.3874 143.556 84.0264C144.063 84.3464 144.572 84.6793 145.081 85.0153C145.559 90.4521 145.211 96.2903 140.084 99.7702Z" fill="white"/>
<path d="M86.7468 19.7449C86.7468 28.6986 77.5726 35.9563 66.2546 35.9563C54.9365 35.9563 45.7624 28.6986 45.7624 19.7449C45.7624 10.7924 54.9365 3.53345 66.2546 3.53345C77.5726 3.53345 86.7468 10.7924 86.7468 19.7449Z" fill="#B12127"/>
<path d="M79.3332 18.5628C79.3332 27.1544 73.4771 34.1174 66.2532 34.1174C59.0307 34.1174 53.176 27.1531 53.176 18.5628C53.176 9.97121 59.0307 3.00562 66.2532 3.00562C73.4771 3.00434 79.3332 9.97121 79.3332 18.5628Z" fill="#E05A45"/>
<path d="M67.5793 8.64362C66.9047 7.99961 66.4439 7.29693 66.2716 6.72815C66.2662 6.72815 66.2596 6.72815 66.2542 6.72815C66.2502 6.72815 66.2435 6.72815 66.2382 6.72815C66.0659 7.29693 65.605 7.99961 64.9305 8.64362C63.9032 9.62559 62.7291 10.1357 62.132 9.90743C62.0291 10.2836 61.9704 10.6764 61.9704 11.0845C61.9704 13.4897 63.8885 16.0696 66.2542 16.0696C68.6225 16.0696 70.5394 13.4897 70.5394 11.0845C70.5394 10.6764 70.4793 10.2836 70.3764 9.90743C69.7807 10.1383 68.6079 9.62432 67.5793 8.64362Z" fill="#F5C912"/>
<path d="M93.1205 18.4876C90.2312 13.9872 83.8449 14.5674 79.2818 15.5851C77.2408 16.0021 75.34 16.8629 73.2628 17.146C71.1323 17.4355 68.9737 17.2812 66.8324 17.3016C64.8688 17.3182 62.8945 17.3246 60.951 17.0274C58.9927 16.729 57.1841 15.9804 55.2566 15.5851C50.6935 14.5674 44.3072 13.9872 41.4179 18.4876C38.8318 22.4079 40.6578 32.4252 43.2426 36.2001C46.741 41.4275 61.9461 41.5716 67.2705 39.3934C72.5923 41.5716 87.7988 41.4275 91.2958 36.2001C93.8806 32.424 95.7052 22.4079 93.1205 18.4876Z" fill="#E05A45"/>
<path d="M91.7417 19.5271C89.0073 15.237 82.9603 15.7905 78.643 16.7597C76.7102 17.1576 74.9082 17.9789 72.9433 18.2467C70.9276 18.5247 68.8812 18.3755 66.8548 18.3946C64.9967 18.4125 63.1266 18.415 61.2859 18.1332C59.4346 17.8488 57.7221 17.1334 55.8948 16.7585C51.5775 15.7892 45.5305 15.2358 42.7948 19.5258C40.3463 23.2624 42.0748 32.8117 44.5219 36.4105C47.8333 41.3918 62.2277 41.5308 67.2689 39.4534C72.3061 41.5308 86.7018 41.3918 90.0118 36.4105C92.4616 32.813 94.1902 23.2637 91.7417 19.5271Z" fill="#B12127"/>
<path d="M38.2516 154.144C38.2516 154.144 40.2655 158.031 67.1095 158.031C93.9535 158.031 93.9535 154.144 93.9535 154.144C96.0854 112.367 85.6156 111.189 85.6156 111.189C85.6156 111.189 95.2305 74.6487 93.6637 70.8317C90.7584 63.7629 75.1631 56.9312 75.1631 56.9312L67.2714 54.4354L59.3769 56.9312C59.3769 56.9312 43.7831 63.7641 40.8777 70.8317C39.3269 74.6053 48.8403 110.524 48.8403 110.524C48.8403 110.524 37.1563 116.958 38.2516 154.144Z" fill="#E05A45"/>
<path d="M67.5616 155.872V54.9496L67.1459 54.8247L66.6574 54.9721V155.872H67.5616Z" fill="#B03520"/>
<path d="M59.9095 42.2766L58.9825 57.6744C58.9825 60.9952 62.6933 63.6886 67.2697 63.6886C71.8434 63.6886 75.5528 60.9952 75.5528 57.6744L74.6284 42.2766H59.9095Z" fill="#EB986A"/>
<path d="M66.3759 49.8301C68.1738 50.3466 70.0613 50.6424 71.9273 50.5098C72.8798 50.4422 74.2209 50.1808 75.0878 49.8556L74.6296 42.2766H59.9094L59.7277 45.3016C61.4709 47.4287 63.7711 49.0828 66.3759 49.8301Z" fill="#44312A"/>
<path d="M79.9293 28.9089C80.0135 28.4052 80.1751 27.9346 80.6333 27.5737C81.2905 27.0559 82.2323 27.061 82.8708 27.6017C84.2868 28.8018 83.9488 31.7388 83.345 33.213C82.8053 34.5291 80.4089 36.4701 79.1559 34.7484C79.1559 34.7484 79.0931 34.6273 79.0931 34.5674C79.2468 33.5879 79.4044 32.6098 79.5513 31.6291C79.6528 30.9608 79.7691 30.2964 79.8425 29.6243C79.8706 29.3846 79.8919 29.1436 79.9293 28.9089Z" fill="#EB986A"/>
<path d="M54.6076 28.9089C54.5248 28.4052 54.3645 27.9346 53.9063 27.5737C53.2491 27.0559 52.3074 27.061 51.6689 27.6017C50.2516 28.8018 50.5882 31.7388 51.1933 33.213C51.733 34.5291 54.1307 36.4701 55.3837 34.7484C55.3837 34.7484 55.4464 34.6273 55.4464 34.5674C55.2942 33.5879 55.1365 32.6098 54.9883 31.6291C54.8868 30.9608 54.7719 30.2964 54.6957 29.6243C54.669 29.3846 54.6476 29.1436 54.6076 28.9089Z" fill="#EB986A"/>
<path d="M54.3818 21.3274C54.2736 22.0237 54.2148 22.7391 54.2148 23.4686V32.9644C54.2148 40.3597 60.0602 47.9783 67.272 47.9783C74.4812 47.9783 80.3279 40.3597 80.3279 32.9644V23.4686C80.3279 22.7404 80.2691 22.025 80.1596 21.3274H54.3818Z" fill="#EB986A"/>
<path d="M53.4967 21.3274C53.2509 23.6867 53.2188 27.135 54.1419 31.3078C54.1419 31.3078 56.1282 29.5364 56.1415 21.3274H53.4967Z" fill="#30323E"/>
<path d="M78.3986 21.3274C78.4133 29.5351 80.3983 31.3078 80.3983 31.3078C81.3214 27.135 81.2893 23.6879 81.0435 21.3274H78.3986Z" fill="#30323E"/>
<path d="M60.8626 28.7424C60.8626 29.3124 60.3763 29.7766 59.7793 29.7766C59.1822 29.7766 58.6986 29.3124 58.6986 28.7424C58.6986 28.1711 59.1822 27.7081 59.7793 27.7081C60.3763 27.7081 60.8626 28.1711 60.8626 28.7424Z" fill="#44312A"/>
<path d="M57.4006 25.4047C57.4006 25.4047 57.4287 25.3384 57.4794 25.2249C57.4928 25.1994 57.5075 25.1662 57.5248 25.1331C57.5569 25.0897 57.5903 25.0451 57.6277 24.9966C57.7038 24.8959 57.7933 24.7837 57.8949 24.6995C57.995 24.6013 58.1139 24.5056 58.2502 24.4215C58.3837 24.3271 58.54 24.2595 58.7017 24.1868C58.8686 24.132 59.0396 24.0669 59.224 24.0363C59.4056 23.9968 59.594 23.9917 59.781 23.9802C60.1577 23.9841 60.5344 24.0516 60.8643 24.1817C61.0259 24.2544 61.1849 24.3182 61.3158 24.4138C61.4534 24.5005 61.5763 24.5924 61.6724 24.6918C61.7793 24.7837 61.8581 24.8831 61.9236 24.9737C61.9957 25.0604 62.0451 25.1407 62.0785 25.2147C62.152 25.3537 62.1827 25.434 62.1827 25.434C62.2896 25.7006 62.152 25.9977 61.8741 26.0985C61.7152 26.1571 61.5455 26.138 61.408 26.0628L61.2704 25.9837C61.2704 25.9837 61.2183 25.9531 61.1421 25.9008C61.07 25.8447 60.9538 25.7809 60.8215 25.7172C60.7561 25.6827 60.6826 25.6534 60.6025 25.6266C60.5303 25.5909 60.4355 25.5794 60.3527 25.5476C60.2605 25.5335 60.1724 25.508 60.0762 25.4978C59.9813 25.4774 59.8812 25.4902 59.7823 25.4749C59.586 25.4774 59.3909 25.5016 59.2106 25.5386C59.1278 25.5718 59.0316 25.5769 58.9595 25.6151C58.8807 25.6445 58.8018 25.6713 58.7391 25.7082C58.6803 25.7376 58.6242 25.7656 58.5761 25.7899C58.5534 25.7988 58.5307 25.8103 58.5066 25.8192C58.4786 25.8421 58.4519 25.8651 58.4278 25.8855C58.329 25.9658 58.2742 26.0118 58.2742 26.0118C58.0404 26.2005 57.6891 26.1724 57.4914 25.9493C57.3485 25.795 57.3218 25.5807 57.4006 25.4047Z" fill="#30323E"/>
<path d="M72.3636 25.4047C72.3636 25.4047 72.393 25.3384 72.4424 25.2249C72.4558 25.1994 72.4705 25.1662 72.4879 25.1331C72.5186 25.0897 72.5533 25.0451 72.5907 24.9966C72.6668 24.8959 72.7563 24.7837 72.8592 24.6995C72.958 24.6013 73.0756 24.5056 73.2145 24.4215C73.3468 24.3271 73.503 24.2595 73.6647 24.1868C73.8316 24.132 74.0026 24.0669 74.1883 24.0363C74.3686 23.9968 74.5583 23.9917 74.744 23.9802C75.122 23.9841 75.4973 24.0516 75.8273 24.1817C75.9889 24.2544 76.1465 24.3182 76.2788 24.4138C76.4163 24.5005 76.5366 24.5924 76.6354 24.6918C76.7409 24.7837 76.8211 24.8831 76.8865 24.9737C76.9587 25.0604 77.0081 25.1407 77.0415 25.2147C77.1149 25.3537 77.1457 25.434 77.1457 25.434C77.2539 25.7006 77.1163 25.9977 76.8371 26.0985C76.6782 26.1571 76.5072 26.138 76.3709 26.0628L76.232 25.9837C76.232 25.9837 76.1812 25.9531 76.1038 25.9008C76.0316 25.8447 75.9154 25.7809 75.7832 25.7172C75.7177 25.6827 75.6429 25.6534 75.5641 25.6266C75.4907 25.5909 75.3958 25.5794 75.3143 25.5476C75.2208 25.5335 75.1327 25.508 75.0365 25.4978C74.9417 25.4774 74.8415 25.4902 74.7426 25.4749C74.5463 25.4774 74.3513 25.5016 74.1709 25.5386C74.0881 25.5718 73.9919 25.5769 73.9185 25.6151C73.8397 25.6445 73.7622 25.6713 73.6981 25.7082C73.6393 25.7376 73.5832 25.7656 73.5351 25.7899C73.5124 25.7988 73.4897 25.8103 73.467 25.8192C73.4389 25.8421 73.4109 25.8651 73.3882 25.8855C73.2907 25.9658 73.2359 26.0118 73.2359 26.0118C73.0021 26.2005 72.6508 26.1724 72.4531 25.9493C72.3129 25.795 72.2862 25.5807 72.3636 25.4047Z" fill="#30323E"/>
<path d="M75.8266 28.7424C75.8266 29.3124 75.343 29.7766 74.7433 29.7766C74.1462 29.7766 73.6613 29.3124 73.6613 28.7424C73.6613 28.1711 74.1449 27.7081 74.7433 27.7081C75.343 27.7081 75.8266 28.1711 75.8266 28.7424Z" fill="#44312A"/>
<path d="M67.8598 35.547L66.3811 34.491L68.1576 31.1243" stroke="#44312A" stroke-miterlimit="10" stroke-linecap="round" stroke-linejoin="round"/>
<path d="M70.0544 39.3053C68.8188 41.1787 65.7185 41.1787 64.4843 39.3053" stroke="#44312A" stroke-miterlimit="10" stroke-linecap="round" stroke-linejoin="round"/>
<path d="M67.2705 69.6171C67.2799 69.6043 75.555 63.4154 75.555 57.6741L67.2705 62.3442L58.9834 57.6741C58.9834 63.4154 67.2679 69.6171 67.2679 69.6171H67.2705Z" fill="#EB986A"/>
<path d="M92.6891 69.0791C92.6891 69.0791 102.937 78.5902 97.3149 103.436C94.7929 114.586 82.0416 112.23 56.4789 103.831C56.4789 103.831 55.5078 99.8823 55.5078 94.822C55.5078 94.822 62.3282 96.3663 69.5588 98.2678C74.8805 99.6668 83.0915 98.6975 83.0915 98.6975C83.0915 98.6975 83.0087 62.213 92.6891 69.0791Z" fill="#E05A45"/>
<path d="M52.7299 98.9365L51.9057 92.8419L56.6812 94.32L57.1794 99.4428C56.1335 99.4135 55.0822 99.2885 54.031 99.1393C53.6062 99.0781 53.1681 99.0003 52.7299 98.9365Z" fill="#B03520"/>
<path d="M40.8775 70.8329C40.8775 70.8329 29.9749 90.0859 31.5524 101.391C33.1313 112.695 40.5248 116.023 73.2247 103.425C73.2247 103.425 74.0689 98.5933 71.8141 93.7472C71.8141 93.7472 61.0998 96.6549 53.5447 96.5465C45.9882 96.4394 44.7713 96.8704 44.7713 96.8704C44.7713 96.8704 54.2139 60.8334 40.8775 70.8329Z" fill="#E05A45"/>
<path d="M47.7703 77.7498C47.7422 78.7623 47.6781 79.7736 47.5552 80.7798C47.5418 80.8844 47.5285 80.989 47.5151 81.0935C47.5125 81.1178 47.4911 81.2683 47.5044 81.1739C47.5178 81.0795 47.5031 81.1815 47.4991 81.2058C47.4951 81.2364 47.4897 81.2683 47.4857 81.2989C47.455 81.5029 47.4216 81.7057 47.3869 81.9097C47.3188 82.3 47.24 82.6889 47.1518 83.0766C46.8232 84.5279 46.3543 85.9447 45.9135 87.3667C45.6263 88.2938 45.3565 89.2247 45.1174 90.1646C45.0346 90.4911 45.2256 90.8775 45.5889 90.9566C45.9362 91.0318 46.329 90.8571 46.4185 90.5064C46.8219 88.9212 47.3321 87.3667 47.809 85.8019C48.2752 84.2703 48.6425 82.7246 48.8576 81.142C49.0112 80.0172 49.0873 78.8835 49.1194 77.7498C49.1288 77.4131 48.8028 77.0904 48.4448 77.1057C48.0708 77.1223 47.7796 77.3889 47.7703 77.7498Z" fill="#9C1C25"/>
<path d="M75.6359 94.715C75.6359 94.715 78.1298 94.2303 79.7087 93.154C81.2876 92.0764 82.0677 91.5318 83.7922 91.7512C83.7922 91.7512 83.1483 96.4379 83.0922 98.6977L75.9471 99.0152C75.9471 99.0165 75.3434 95.79 75.6359 94.715Z" fill="#EB986A"/>
<path d="M52.1524 94.4103C51.964 94.2293 51.7356 93.9678 51.4564 93.584C50.4426 92.185 48.7996 89.4418 45.6725 88.0939C42.5481 86.7472 39.8311 86.6528 39.1606 87.812C38.9816 88.1232 38.9095 89.1422 40.6299 88.5249C42.7939 87.747 44.0148 88.7417 44.127 89.4393C44.2392 90.1394 44.127 89.8168 42.0405 90.031C39.954 90.2453 38.4032 90.1382 39.0657 92.616C39.7283 95.0913 39.3275 95.4076 42.2102 94.9307C45.0928 94.4537 45.9597 96.0504 46.2282 96.6753C46.2282 96.6753 49.6518 96.4266 52.1444 96.4929C52.1083 95.8004 52.1363 95.1054 52.1524 94.4103Z" fill="#EB986A"/>
<path d="M40.8309 98.977C40.9618 98.8533 41.0994 98.7372 41.2423 98.6263C41.3585 98.5357 41.1515 98.6888 41.2423 98.6263C41.273 98.6046 41.3037 98.5829 41.3358 98.5612C41.4146 98.5077 41.4961 98.4554 41.5776 98.4056C41.7392 98.3074 41.9048 98.2169 42.0745 98.1327C42.2401 98.0498 42.4271 97.9912 42.5874 97.9019C42.5767 97.9083 42.4338 97.9618 42.5407 97.921C42.5594 97.9134 42.5794 97.9057 42.5981 97.8994C42.6435 97.8815 42.6889 97.8649 42.733 97.8483C42.8305 97.8126 42.9294 97.7782 43.0296 97.7463C43.2192 97.6838 43.4103 97.6277 43.6026 97.5767C44.0087 97.4683 44.4201 97.3803 44.8342 97.3089C45.0439 97.2719 45.2536 97.24 45.4647 97.2107C45.4861 97.2082 45.6677 97.1839 45.5582 97.198C45.446 97.212 45.625 97.1903 45.6517 97.1865C45.7666 97.1725 45.8828 97.1597 45.9977 97.1482C46.4398 97.1023 46.8846 97.0692 47.3294 97.0449C48.211 96.9965 49.0953 96.985 49.9783 96.9863C51.7575 96.9901 53.5368 97.0232 55.316 96.999C57.5268 96.9684 59.7388 96.8791 61.9362 96.6419C64.1602 96.4022 66.3789 96.0298 68.5108 95.3679C68.7606 95.2902 69.0078 95.2085 69.2549 95.1244C69.5861 95.0096 69.8439 94.6818 69.7264 94.3324C69.6209 94.0212 69.2522 93.7598 68.8969 93.8822C67.8723 94.2368 66.8211 94.5199 65.7578 94.7482C65.2195 94.8642 64.6785 94.965 64.1362 95.0555C63.8583 95.1014 63.5792 95.1448 63.3 95.1843C63.1651 95.2034 63.0288 95.2226 62.8939 95.2404C62.8578 95.2455 62.6615 95.271 62.8111 95.2519C62.7336 95.2621 62.6561 95.271 62.5787 95.2812C60.368 95.5503 58.1399 95.66 55.9131 95.7033C54.0845 95.7378 52.2571 95.7161 50.4271 95.7033C48.6038 95.6906 46.7764 95.7288 44.9705 95.9903C43.2981 96.2326 41.611 96.7044 40.2752 97.731C40.1363 97.8369 40.004 97.9504 39.8785 98.0703C39.6273 98.3075 39.6113 98.7461 39.8785 98.9808C40.147 99.2129 40.5637 99.2295 40.8309 98.977Z" fill="#9C1C25"/>
<path d="M83.7354 98.3762C83.6459 96.7426 83.6753 95.1039 83.8062 93.4728C83.8382 93.0647 83.877 92.6579 83.9224 92.2511C83.9438 92.0559 83.9665 91.8595 83.9905 91.6644C84.0039 91.5573 84.0172 91.4515 84.0319 91.3443C84.0386 91.2908 84.0466 91.2372 84.0533 91.1837C84.056 91.1658 84.084 90.9669 84.0707 91.0561C84.056 91.1581 84.0814 90.9834 84.0814 90.9822C84.0894 90.9286 84.0974 90.875 84.1054 90.8215C84.1214 90.7143 84.1375 90.6072 84.1548 90.5014C84.1882 90.2871 84.2229 90.0742 84.2604 89.8599C84.3311 89.4493 84.4073 89.0399 84.4888 88.6318C84.8254 86.9561 85.2555 85.2969 85.7765 83.6646C86.0303 82.8688 86.3054 82.0794 86.602 81.2977C86.7556 80.8921 86.9159 80.4891 87.0815 80.0874C87.1577 79.9038 87.2338 79.7214 87.3113 79.539C87.346 79.4561 87.3821 79.3745 87.4181 79.2916C87.4395 79.2419 87.4609 79.1934 87.4822 79.1437C87.5116 79.0761 87.5116 79.0774 87.4796 79.1501C87.4943 79.1169 87.509 79.085 87.5237 79.0519C88.2757 77.3685 89.1346 75.7285 90.1097 74.1522C90.2887 73.8615 90.1885 73.433 89.8679 73.271C89.5434 73.1078 89.1373 73.192 88.9449 73.5019C87.1456 76.4082 85.7324 79.5365 84.6624 82.7515C83.5711 86.0251 82.8418 89.4136 82.5145 92.8351C82.3382 94.6766 82.2874 96.5284 82.3889 98.375C82.4076 98.7104 82.6855 99.0356 83.0635 99.019C83.4095 99.005 83.7541 98.7359 83.7354 98.3762Z" fill="#9C1C25"/>
<path d="M70.2298 93.2088L74.8328 91.5752C74.8328 91.5752 77.4162 98.8647 76.2261 103.403L71.7512 104.528L70.2298 93.2088Z" fill="#B03520"/>
<path d="M54.24 21.3274L55.7775 25.2948L58.2259 21.3274H54.24Z" fill="#30323E"/>
<path d="M68.9039 21.3274C69.517 21.6704 70.1461 21.988 70.8047 22.243C71.7357 22.6001 72.7068 22.7952 73.69 22.961C74.7225 23.1357 75.735 23.3691 76.7596 23.5808C77.7521 23.7887 78.9756 23.9787 79.7557 23.1957C80.25 22.7021 80.433 21.9893 80.4971 21.3274H68.9039V21.3274Z" fill="#9F3A20"/>
<path d="M63.9552 89.3805C63.9552 90.689 63.0081 91.75 61.8406 91.75C60.6732 91.75 59.7274 90.689 59.7274 89.3805C59.7274 88.0695 60.6732 87.0098 61.8406 87.0098C63.0081 87.0098 63.9552 88.0695 63.9552 89.3805Z" fill="#F5C912"/>
<path d="M62.4887 89.3806C62.4887 89.7785 62.1988 90.1037 61.8421 90.1037C61.4855 90.1037 61.1956 89.7785 61.1956 89.3806C61.1956 88.9802 61.4841 88.6562 61.8421 88.6562C62.1988 88.6562 62.4887 88.9802 62.4887 89.3806Z" fill="#FBBA00"/>
<path d="M49.4519 18.9058C49.9929 21.2319 49.134 24.7823 49.134 24.7823C59.4569 21.5265 71.0488 21.9346 81.4558 24.6114C82.9706 24.934 85.4177 26.4988 86.7709 26.4695C86.7709 26.4695 85.9454 22.9484 85.4471 19.7449L49.4519 18.9058Z" fill="#B12127"/>
<path d="M67.2682 70.1507C67.2682 70.1507 57.29 69.42 54.4421 59.9C54.4421 59.9 52.6989 55.7885 55.8981 52.9841C55.8981 52.9841 67.4098 60.5529 67.2682 70.1507Z" fill="#B03520"/>
<path d="M66.4263 70.0385C66.9539 70.1278 67.2678 70.1507 67.2678 70.1507C67.4094 60.5529 55.8977 52.9841 55.8977 52.9841C55.6746 53.1792 55.4823 53.3795 55.306 53.5848C56.9009 54.6956 66.1592 61.5069 66.4263 70.0385Z" fill="#F5C912"/>
<path d="M67.271 70.1507C67.271 70.1507 77.2492 69.42 80.0971 59.9C80.0971 59.9 81.8416 55.7885 78.6424 52.9841C78.6411 52.9841 67.1294 60.5529 67.271 70.1507Z" fill="#B03520"/>
<path d="M68.1125 70.0385C67.5849 70.1278 67.271 70.1507 67.271 70.1507C67.1294 60.5529 78.6411 52.9841 78.6411 52.9841C78.8628 53.1792 79.0565 53.3795 79.2329 53.5848C77.6366 54.6956 68.3797 61.5069 68.1125 70.0385Z" fill="#F5C912"/>
</g>
</svg>
