<svg width="156" height="100" viewBox="0 0 156 100" fill="none" xmlns="http://www.w3.org/2000/svg">
<mask id="mask0" style="mask-type:alpha" maskUnits="userSpaceOnUse" x="0" y="0" width="156" height="100">
<rect width="156" height="100" fill="black"/>
</mask>
<g mask="url(#mask0)">
<path d="M150.637 121.556C139.224 138.151 117.871 151.02 75.8608 151.777C75.3744 151.787 74.8891 151.792 74.3943 151.798C61.2647 151.943 46.1404 150.926 28.7221 148.494C23.8215 147.81 19.3393 146.146 15.2526 143.73C14.7463 143.438 14.2452 143.124 13.7547 142.801C7.60723 138.808 2.39911 133.115 -1.96382 126.567C-2.62595 125.58 -3.2682 124.568 -3.88953 123.539C-9.64053 114.057 -13.7524 103.177 -16.4825 93.2458C-17.2336 90.636 -17.9846 87.6046 -18.6436 84.2961V84.2909C-18.743 83.8055 -18.8413 83.3149 -18.9302 82.8191C-20.0934 76.6351 -20.9385 69.5954 -20.9961 62.5557C-21.0013 62.1174 -21.0013 61.6739 -20.9961 61.2356C-20.9229 48.4136 -18.1509 35.7798 -9.86019 28.51C-9.30162 28.0142 -8.71167 27.5497 -8.10079 27.1114C-4.73053 24.6795 -0.570526 23.0456 4.52252 22.4713C13.8268 21.3542 21.3058 28.7338 29.6918 28.2788C30.1614 28.2526 30.6374 28.2056 31.1112 28.1229C32.562 27.8928 34.0442 27.4022 35.5672 26.578C45.1592 21.0989 51.5524 8.7727 59.3118 1.00707C72.2541 -12.6549 93.9684 -16.9698 110.422 -9.05351C110.976 -8.79305 111.524 -8.51063 112.066 -8.20833C115.871 -6.14663 119.351 -3.39142 122.326 0.0949466C126.86 5.16289 129.835 11.0122 131.255 17.2747C131.375 17.8019 131.485 18.3396 131.583 18.8762C132.303 22.8427 132.414 26.965 131.912 31.1449C131.703 33.7808 131.201 36.3896 130.576 38.989C130.461 39.4586 130.346 39.9283 130.221 40.3969C128.127 48.5956 125.101 56.7524 126.431 65.3946C128.222 76.8234 135.867 80.1476 143.487 85.204C143.997 85.5429 144.509 85.8934 145.02 86.248C146.628 87.3756 148.214 88.612 149.722 90.0471C158.397 98.7259 157.484 111.965 150.637 121.556Z" fill="#BBDDE7"/>
<path d="M27.9742 37.7568C25.5318 40.0109 22.172 39.7139 19.2494 38.6281C15.1637 37.1093 11.5152 34.6104 7.86771 32.2715C4.09473 29.851 0.36464 27.283 -4.34348 27.6271C-14.8894 28.3939 -7.33927 43.7369 -5.89263 49.4094C-4.90728 53.2818 -4.75456 58.1133 -8.11541 60.9428C-11.9145 64.1415 -16.6854 64.1415 -20.996 62.5557C-21.0013 62.1175 -21.0013 61.6739 -20.996 61.2357C-19.3151 61.9511 -17.5672 62.3622 -15.7189 62.2168C-11.6907 61.8936 -7.37379 60.1133 -6.81103 55.5683C-6.53488 53.3246 -6.84241 51.2316 -7.46897 49.0872C-8.64365 45.0329 -10.2242 41.0455 -10.9281 36.8656C-11.3717 34.2359 -11.6792 30.7338 -9.85912 28.511C-9.64468 28.2495 -9.39992 28.0048 -9.12272 27.7799C-8.80369 27.5236 -8.46478 27.305 -8.09867 27.1125C-5.25979 25.5937 -1.18974 25.9012 1.61777 27.0759C5.33844 28.6303 8.63758 31.1198 12.0445 33.2443C15.353 35.3049 19.9356 38.5308 24.0736 38.0193C28.3518 37.4921 29.9857 32.1595 29.6939 28.2809C30.1635 28.2548 30.6395 28.2077 31.1133 28.1251C31.3361 31.4273 30.4229 35.4869 27.9742 37.7568Z" fill="#EBEBEB"/>
<path d="M112.067 -8.20836C109.065 -6.34018 105.789 -5.09856 102.277 -5.01488C98.597 -4.92597 96.1022 -6.17805 92.8983 -7.81715C89.9192 -9.33597 83.6044 -12.5295 82.8994 -6.94059C82.1902 -1.32035 84.7153 3.87208 85.3576 9.33123C86.1138 15.7757 86.6462 23.4577 80.6243 27.7526C75.5417 31.3739 69.1799 31.2442 64.0502 27.8258C60.7574 25.6292 57.0733 22.3887 52.7982 23.4472C50.6487 23.9796 48.9897 25.42 48.4562 27.6219C46.2502 36.7484 52.1675 46.1217 53.2731 55.04C53.6967 58.4532 52.8348 62.9667 50.2051 65.3987C47.7617 67.6592 44.4019 67.3611 41.4793 66.2701C37.3925 64.7513 33.745 62.2575 30.0976 59.9197C26.3194 57.4982 22.5935 54.9313 17.8853 55.2702C7.33419 56.0432 14.8843 71.3809 16.3362 77.0576C17.3226 80.9248 17.469 85.7626 14.1134 88.5858C9.18145 92.729 2.63758 91.5083 -2.43978 88.4247C-5.66465 86.4676 -8.88429 83.3944 -12.788 82.998C-14.9114 82.7783 -16.9365 83.2375 -18.6436 84.2919C-18.743 83.8065 -18.8413 83.3159 -18.9302 82.8201C-16.0129 81.2072 -12.4073 80.9248 -9.32257 82.4906C-4.37491 85.0011 0.561236 90.3337 6.51097 89.8598C10.5402 89.5408 14.8509 87.7615 15.4188 83.2166C15.695 80.9718 15.3822 78.8746 14.7609 76.7302C13.5862 72.6748 12.0046 68.6885 11.3007 64.5138C10.8059 61.5755 10.4764 57.5358 13.1009 55.4281C15.9042 53.1792 20.6793 53.3978 23.8414 54.7231C27.562 56.2733 30.8664 58.767 34.268 60.8862C37.5818 62.9531 42.1634 66.178 46.3025 65.6665C50.8579 65.1027 52.4133 59.0913 51.8443 55.2043C51.1549 50.492 49.4855 45.9512 48.3213 41.3487C46.8087 35.3582 43.8966 23.1721 53.1486 21.9253C60.6266 20.9127 64.9372 29.3248 72.3211 29.0486C77.1327 28.8656 81.731 26.3719 83.4841 21.6491C84.9559 17.6826 84.3973 13.5969 83.9276 9.50069C83.3638 4.55303 76.5951 -14.8704 88.551 -11.2387C91.3439 -10.3935 93.8062 -8.85899 96.4317 -7.61737C99.3794 -6.22407 102.616 -6.07763 105.762 -7.04415C107.401 -7.54937 108.957 -8.23347 110.422 -9.0525C110.976 -8.79309 111.525 -8.51066 112.067 -8.20836Z" fill="#EBEBEB"/>
<path d="M131.584 18.8762C129.138 20.1136 126.523 20.8961 123.761 20.9641C120.087 21.053 117.593 19.7957 114.389 18.1618C111.403 16.643 105.089 13.4495 104.384 19.0331C103.68 24.6534 106.205 29.8521 106.847 35.3102C107.598 41.7557 108.137 49.4366 102.109 53.7316C97.0259 57.3529 90.6651 57.2232 85.5396 53.8048C82.2415 51.6081 78.5575 48.3665 74.2834 49.4262C72.1339 49.9586 70.4749 51.3979 69.9414 53.6008C67.7354 62.7283 73.6579 72.1006 74.7583 81.0138C75.1809 84.4321 74.32 88.9467 71.6904 91.3787C69.2479 93.6381 65.8871 93.3358 62.9645 92.2501C58.8788 90.7312 55.2303 88.2365 51.5828 85.8934C47.8109 83.4771 44.0797 80.905 39.3726 81.2481C28.8257 82.02 36.3769 97.3577 37.8225 103.03C38.8088 106.903 38.9605 111.74 35.5997 114.564C30.6729 118.707 24.1238 117.486 19.0517 114.402C15.8268 112.444 12.602 109.37 8.69824 108.969C5.12295 108.603 1.82068 110.153 -0.116542 113.227C-2.70439 117.34 -2.96484 122.021 -1.96381 126.566C-2.62593 125.579 -3.26819 124.567 -3.88952 123.538C-4.4324 118.472 -3.36233 113.513 0.749559 110.038C3.87087 107.392 8.40012 106.557 12.1626 108.466C17.1103 110.977 22.0464 116.305 27.9951 115.836C32.0244 115.518 36.3402 113.738 36.903 109.192C37.1792 106.949 36.8716 104.85 36.2451 102.706C35.0714 98.6517 33.4888 94.6643 32.7848 90.4844C32.289 87.5513 31.9595 83.5127 34.5913 81.4039C37.3936 79.1497 42.1634 79.3746 45.3308 80.6947C49.0462 82.2501 52.3495 84.7386 55.7564 86.8631C59.0649 88.929 63.6475 92.1549 67.7856 91.6434C72.341 91.0806 73.8954 85.0681 73.3263 81.1801C72.6391 76.4678 70.9728 71.927 69.8034 67.3245C68.2908 61.334 65.3839 49.1479 74.6307 47.8958C82.1097 46.8885 86.4256 55.3006 93.8042 55.0234C98.6159 54.8414 103.214 52.3466 104.967 47.6239C106.439 43.6574 105.88 39.5664 105.411 35.4692C104.847 30.5267 98.0792 11.0991 110.034 14.7308C112.832 15.5813 115.295 17.1105 117.915 18.3522C120.863 19.7517 124.099 19.8971 127.245 18.9317C128.644 18.4986 129.98 17.94 131.254 17.2716C131.375 17.8009 131.485 18.3386 131.584 18.8762Z" fill="#EBEBEB"/>
<path d="M130.577 38.989C130.462 39.4587 130.347 39.9283 130.222 40.3969C127.033 38.9304 122.68 37.6104 122.107 42.1919C121.397 47.8121 123.923 53.0046 124.565 58.4637C125.322 64.9082 125.854 72.5902 119.827 76.8851C114.744 80.5064 108.388 80.3767 103.258 76.9583C99.9652 74.7617 96.2759 71.5211 92.0019 72.5797C89.8565 73.1121 88.1965 74.5525 87.6651 76.7543C85.4569 85.8819 91.3743 95.2552 92.482 104.174C92.8983 107.586 92.0385 112.1 89.4078 114.532C86.9653 116.793 83.6097 116.495 80.6819 115.404C76.5951 113.885 72.9487 111.391 69.3012 109.053C65.5283 106.632 61.8013 104.064 57.0901 104.404C46.5431 105.177 54.0943 120.513 55.5399 126.191C56.5262 130.058 56.6779 134.895 53.3171 137.723C48.3914 141.863 41.8465 140.641 36.7691 137.557C33.5432 135.6 30.3183 132.527 26.4156 132.129C22.8404 131.763 19.537 133.309 17.6009 136.382C16.1438 138.694 15.4252 141.184 15.2526 143.73C14.7463 143.438 14.2453 143.124 13.7547 142.801C14.0476 139.159 15.4199 135.772 18.467 133.193C21.5883 130.552 26.1228 129.712 29.8853 131.622C34.8277 134.132 39.7649 139.465 45.7136 138.991C49.7428 138.673 54.0577 136.893 54.6215 132.348C54.9039 130.104 54.5901 128.007 53.9687 125.862C52.7899 121.806 51.2083 117.82 50.5096 113.645C50.0127 110.707 49.6801 106.668 52.3098 104.56C55.112 102.311 59.8871 102.529 63.0503 103.856C66.7709 105.406 70.0732 107.901 73.4769 110.019C76.7907 112.086 81.3723 115.31 85.5051 114.799C90.0615 114.235 91.6169 108.224 91.0479 104.336C90.3638 99.6234 88.6944 95.0837 87.5312 90.4802C86.0124 84.4896 83.1055 72.3036 92.3533 71.0567C99.8365 70.0442 104.147 78.4573 111.527 78.1801C116.337 77.997 120.936 75.5033 122.689 70.7806C124.166 66.8151 123.607 62.7283 123.139 58.6321C122.57 53.6855 115.801 34.261 127.757 37.8928C128.73 38.1846 129.664 38.5664 130.577 38.989Z" fill="#EBEBEB"/>
<path d="M139.996 101.825C134.914 105.452 128.552 105.321 123.422 101.903C120.13 99.706 116.445 96.4602 112.172 97.524C110.022 98.0564 108.363 99.4968 107.83 101.693C105.622 110.826 111.541 120.193 112.646 129.112C113.069 132.53 112.208 137.039 109.578 139.477C107.136 141.731 103.775 141.434 100.852 140.348C96.7666 138.83 93.1181 136.33 89.4654 133.992C85.6935 131.571 81.9666 129.003 77.2595 129.347C66.7073 130.12 74.2585 145.457 75.7093 151.129C75.7616 151.344 75.8139 151.557 75.861 151.777C75.3746 151.787 74.8892 151.792 74.3945 151.798C74.316 151.468 74.2281 151.134 74.134 150.806C72.9593 146.752 71.3777 142.764 70.6738 138.584C70.178 135.646 69.8495 131.613 72.475 129.499C75.2773 127.25 80.0523 127.474 83.2197 128.795C86.9351 130.35 90.2384 132.839 93.6401 134.963C96.9549 137.024 101.536 140.248 105.675 139.737C110.23 139.178 111.786 133.167 111.217 129.274C110.528 124.561 108.858 120.026 107.694 115.423C106.181 109.433 103.269 97.2426 112.515 95.9958C120 94.9885 124.31 103.395 131.693 103.118C136.5 102.94 141.103 100.447 142.856 95.7175C144.135 92.2845 143.884 88.7511 143.488 85.203C143.998 85.5419 144.51 85.8923 145.021 86.2469C145.503 91.9885 145.152 98.1516 139.996 101.825Z" fill="#EBEBEB"/>
<path d="M105.583 71.7597C101.39 64.3019 76.2373 57.0897 76.2373 57.0897L67.4895 54.4572L58.7406 57.0909C58.7406 57.0909 33.587 64.3019 29.3947 71.7609C25.2037 79.2199 37.1825 143.535 37.1849 157.416C37.1849 157.418 37.1837 157.418 37.1837 157.418C37.1837 159.298 50.7523 160.821 67.4908 160.821C84.2268 160.821 97.7954 159.298 97.7954 157.418C97.7942 143.543 109.775 79.2187 105.583 71.7597Z" fill="#81C6D6"/>
<path d="M58.7187 41.626L57.6144 57.8765C57.6144 61.3807 62.0354 64.2228 67.4897 64.2228C72.9416 64.2228 77.3626 61.3819 77.3626 57.8765L76.2595 41.626H58.7187Z" fill="#EB986A"/>
<path d="M66.4233 49.597C68.5659 50.1405 70.8161 50.4536 73.0394 50.3151C74.1743 50.2429 75.7715 49.9671 76.8061 49.6226L76.2607 41.626H58.7188L58.506 44.7636C60.5837 47.0087 63.3207 48.8068 66.4233 49.597Z" fill="#44312A"/>
<path d="M81.3128 27.4388C81.4033 26.8894 81.5806 26.3774 82.082 25.9852C82.7986 25.4207 83.8259 25.4277 84.523 26.0166C86.0712 27.3201 85.7019 30.5182 85.0415 32.1208C84.452 33.5558 81.8362 35.6658 80.4677 33.7944C80.4677 33.7944 80.3992 33.6617 80.3992 33.5977C80.5668 32.5317 80.7392 31.4656 80.9006 30.3984C81.0119 29.671 81.1379 28.9483 81.2186 28.2174C81.2467 27.9543 81.2712 27.6936 81.3128 27.4388Z" fill="#EB986A"/>
<path d="M53.6654 27.4388C53.5761 26.8895 53.3975 26.3774 52.8974 25.9852C52.1807 25.4208 51.1535 25.4277 50.4564 26.0166C48.9081 27.3201 49.2775 30.5183 49.9379 32.1209C50.5273 33.5559 53.1432 35.6659 54.5116 33.7945C54.5116 33.7945 54.5801 33.6618 54.5801 33.5978C54.4126 32.5317 54.2414 31.4657 54.0787 30.3984C53.9674 29.671 53.8415 28.9483 53.7608 28.2174C53.7314 27.9544 53.7069 27.6937 53.6654 27.4388Z" fill="#EB986A"/>
<path d="M67.4895 7.64215C59.2872 7.64215 52.638 13.9687 52.638 21.7745V23.5202V31.7624V33.5082C52.638 41.3139 59.2872 47.6416 67.4895 47.6416C75.6918 47.6416 82.3409 41.3139 82.3409 33.5082V31.7624V23.5202V21.7745C82.3409 13.9687 75.6918 7.64215 67.4895 7.64215Z" fill="#EB986A"/>
<path d="M59.8232 28.6888C59.8232 29.2684 59.3291 29.7386 58.7189 29.7386C58.1099 29.7386 57.6158 29.2696 57.6158 28.6888C57.6158 28.1081 58.1099 27.6367 58.7189 27.6367C59.3291 27.6379 59.8232 28.1081 59.8232 28.6888Z" fill="#44312A"/>
<path d="M56.2935 25.295C56.2935 25.295 56.3228 25.231 56.3742 25.1134C56.3877 25.0843 56.4023 25.0541 56.4194 25.0203C56.4525 24.9761 56.4867 24.9307 56.5234 24.8795C56.6004 24.7794 56.6934 24.6642 56.7973 24.5781C56.8988 24.478 57.0187 24.3803 57.1606 24.2965C57.2963 24.201 57.4553 24.1324 57.6192 24.0579C57.7892 24.002 57.964 23.9357 58.1511 23.9043C58.337 23.8647 58.529 23.8589 58.7198 23.8461C59.1038 23.8507 59.4878 23.9194 59.8229 24.0497C59.988 24.1254 60.1494 24.1882 60.284 24.2871C60.4246 24.3733 60.5469 24.4675 60.6472 24.57C60.7548 24.6607 60.8355 24.7643 60.9028 24.8562C60.9749 24.9435 61.0251 25.0262 61.0605 25.0995C61.1339 25.2415 61.1669 25.3241 61.1669 25.3241C61.2758 25.5929 61.1351 25.8955 60.8526 25.9991C60.6912 26.0573 60.5163 26.0387 60.3769 25.9607L60.2375 25.8816C60.2375 25.8816 60.1837 25.8525 60.1066 25.7978C60.032 25.7419 59.9146 25.6767 59.7801 25.6115C59.7128 25.5766 59.6382 25.5475 59.5575 25.5184C59.4829 25.4847 59.3863 25.4731 59.3032 25.4393C59.209 25.4265 59.1185 25.3986 59.0194 25.3904C58.9228 25.3695 58.8213 25.3811 58.7223 25.3672C58.5205 25.3695 58.3224 25.3939 58.1377 25.4323C58.0533 25.4661 57.9543 25.4719 57.8809 25.5103C57.8002 25.5406 57.7219 25.5673 57.6571 25.6046C57.5959 25.6337 57.5409 25.6616 57.4908 25.686C57.4675 25.6977 57.4443 25.7093 57.421 25.7163C57.3917 25.7407 57.3648 25.764 57.3403 25.785C57.2413 25.8653 57.1826 25.9118 57.1826 25.9118C56.9441 26.1027 56.587 26.0771 56.3852 25.8501C56.2409 25.6919 56.214 25.4765 56.2935 25.295Z" fill="#44312A"/>
<path d="M73.8335 25.295C73.8335 25.295 73.8616 25.231 73.913 25.1134C73.9277 25.0843 73.9423 25.0541 73.9595 25.0203C73.9912 24.9761 74.0267 24.9307 74.0634 24.8795C74.1404 24.7794 74.2322 24.6642 74.3373 24.5781C74.4401 24.478 74.5599 24.3803 74.7005 24.2965C74.8363 24.201 74.994 24.1324 75.1591 24.0579C75.3291 24.002 75.5052 23.9357 75.6923 23.9043C75.877 23.8647 76.069 23.8589 76.261 23.8461C76.6438 23.8507 77.029 23.9194 77.3641 24.0497C77.5292 24.1254 77.6918 24.1882 77.8251 24.2871C77.967 24.3733 78.088 24.4675 78.1883 24.57C78.2971 24.6607 78.3779 24.7643 78.4439 24.8562C78.516 24.9435 78.5662 25.0262 78.6017 25.0995C78.675 25.2415 78.708 25.3241 78.708 25.3241C78.8169 25.5929 78.6762 25.8955 78.3925 25.9991C78.2311 26.0573 78.0562 26.0387 77.9168 25.9607L77.7774 25.8816C77.7774 25.8816 77.7248 25.8525 77.6466 25.7978C77.572 25.7419 77.4546 25.6767 77.3188 25.6115C77.2516 25.5766 77.177 25.5475 77.095 25.5184C77.0204 25.4847 76.9238 25.4731 76.8406 25.4393C76.7465 25.4265 76.656 25.3986 76.5569 25.3904C76.4603 25.3695 76.3588 25.3811 76.2598 25.3672C76.0592 25.3695 75.8599 25.3939 75.6752 25.4323C75.5908 25.4661 75.4918 25.4719 75.4172 25.5103C75.3377 25.5406 75.2594 25.5673 75.1946 25.6046C75.1322 25.6337 75.0772 25.6616 75.0258 25.686C75.0038 25.6977 74.9794 25.7093 74.9561 25.7163C74.9268 25.7407 74.9011 25.764 74.8766 25.785C74.7776 25.8653 74.7189 25.9118 74.7189 25.9118C74.4816 26.1027 74.1245 26.0771 73.9228 25.8501C73.7821 25.6919 73.754 25.4765 73.8335 25.295Z" fill="#44312A"/>
<path d="M77.3626 28.6888C77.3626 29.2684 76.8685 29.7386 76.2595 29.7386C75.6492 29.7386 75.1552 29.2696 75.1552 28.6888C75.1552 28.1081 75.6492 27.6367 76.2595 27.6367C76.8697 27.6379 77.3626 28.1081 77.3626 28.6888Z" fill="#44312A"/>
<path d="M52.6344 30.0493C52.6344 30.0493 55.0607 28.0336 54.8907 18.4809L52.6344 15.8646C52.6344 15.8646 50.6178 21.5301 52.6344 30.0493Z" fill="#44312A"/>
<path d="M82.3425 30.0493C82.3425 30.0493 79.9161 28.0336 80.0861 18.4809L82.3425 15.8646C82.3425 15.8646 84.3604 21.5301 82.3425 30.0493Z" fill="#44312A"/>
<path d="M54.8909 18.482C54.8909 18.482 55.6246 14.2294 62.3631 14.2294C69.1003 14.2294 74.189 14.2294 74.189 14.2294C74.189 14.2294 78.8643 14.4901 80.2401 18.9406L82.3436 15.8657C82.3436 15.8657 81.5829 9.30059 78.1452 8.64652C78.1452 8.64652 75.4572 3.41861 63.6606 4.45907C56.2361 5.11314 55.8228 8.90838 55.8228 8.90838C55.8228 8.90838 52.8437 9.51822 52.0267 18.5926L54.8909 18.482Z" fill="#44312A"/>
<path d="M74.7713 14.1177C74.7713 14.1177 73.3038 18.0921 63.3123 20.6223V19.2257C63.3123 19.2257 61.4779 20.6642 58.7287 21.21C55.9783 21.7547 53.4113 23.6669 53.3196 25.8956L54.5805 12.4441L75.5051 9.19354L74.7713 14.1177Z" fill="#44312A"/>
<path d="M68.0913 35.6044L66.5822 34.5313L68.3946 31.1108" stroke="#44312A" stroke-miterlimit="10" stroke-linecap="round" stroke-linejoin="round"/>
<path d="M70.3279 39.4227C69.0683 41.3256 65.9082 41.3256 64.6497 39.4227" stroke="#44312A" stroke-miterlimit="10" stroke-linecap="round" stroke-linejoin="round"/>
<path d="M67.4897 74.5168C67.5007 74.5028 77.3626 63.9341 77.3626 57.8763L67.4897 62.804L57.6144 57.8763C57.6144 63.9329 67.4775 74.5016 67.4897 74.5168Z" fill="#EB986A"/>
<path d="M50.918 77.1887C51.7007 81.4332 52.2351 85.6439 53.5877 89.7732C54.7287 93.2635 56.9031 95.7588 58.7266 98.886C58.9418 99.2537 59.5349 98.9244 59.3209 98.5554C58.4722 97.1018 57.3838 95.8181 56.4115 94.4401C55.2191 92.7514 54.5979 90.6647 53.9681 88.7362C52.717 84.9154 52.3061 80.9397 51.5821 77.0141C51.505 76.5986 50.8422 76.7755 50.918 77.1887Z" fill="#E5E5E5"/>
<path d="M57.9003 77.0921C58.0751 81.1073 57.6606 85.1714 56.5452 89.0527C55.3737 93.1354 52.748 95.9228 50.6775 99.5074C50.4648 99.8775 51.0579 100.208 51.2719 99.8379C52.2356 98.1666 53.5087 96.7014 54.6093 95.1128C55.6427 93.6219 56.2848 91.7935 56.9097 90.1246C58.4286 86.064 58.7747 81.3622 58.5888 77.0921C58.5692 76.6731 57.8819 76.6708 57.9003 77.0921Z" fill="#E5E5E5"/>
<path d="M84.0906 91.3746C84.0906 93.9211 81.9211 95.9857 79.2441 95.9857C76.5671 95.9857 74.3976 93.9211 74.3976 91.3746C74.3976 88.827 76.5671 86.7612 79.2441 86.7612C81.9224 86.7612 84.0906 88.827 84.0906 91.3746Z" fill="#E5E5E5"/>
<path d="M81.87 91.3747C81.87 92.7539 80.6948 93.8711 79.2443 93.8711C77.7952 93.8711 76.6199 92.7527 76.6199 91.3747C76.6199 89.9945 77.7952 88.8749 79.2443 88.8749C80.6948 88.8749 81.87 89.9945 81.87 91.3747Z" fill="#A4A3A3"/>
<path d="M80.7731 86.9975V87.0021C80.6508 87.7086 80.5248 88.4208 80.3879 89.1284C80.2338 89.9338 80.0736 90.7403 79.9097 91.5457C79.7324 92.3732 78.4128 92.0217 78.584 91.2012C78.743 90.4308 78.8971 89.6568 79.0451 88.8817C79.1833 88.1799 79.3154 87.4735 79.4413 86.7659C80.3108 81.8243 80.8771 76.8152 80.641 71.8107C80.4808 68.3611 80.0516 64.9278 79.1882 61.5667C78.7968 60.0537 78.3688 58.4162 77.3953 57.1291C77.3684 57.0918 77.3342 57.0499 77.3024 57.0127L77.1703 55.0714C78.112 55.736 78.8604 56.6519 79.4646 58.0752C80.7853 61.1896 81.3895 64.6509 81.7319 67.9841C82.3849 74.3723 81.8456 80.7047 80.7731 86.9975Z" fill="#4D7587"/>
<path d="M57.8033 55.1296L57.6871 56.7834C56.3125 57.9717 55.5922 60.3168 55.2828 61.7774C54.6774 64.6358 55.0467 67.6978 55.1849 70.5922C55.1898 70.6807 55.1898 70.7645 55.1959 70.8483C55.229 71.692 53.8544 71.692 53.8214 70.8483C53.8152 70.7703 53.8152 70.6923 53.8103 70.6132C53.6404 66.8808 53.1279 62.8819 54.6138 59.3217C55.284 57.725 56.2183 55.9141 57.8033 55.1296Z" fill="#4D7587"/>
<path d="M55.3051 70.6049C51.2412 69.9718 50.2249 74.4316 50.5747 77.3469C51.0284 77.326 51.4809 77.2957 51.931 77.2317C51.6118 75.0496 52.2257 71.1321 55.4958 71.9829C57.5418 72.5148 57.9527 75.7432 57.7375 77.5692C58.1998 77.6391 58.6486 77.6763 59.0986 77.6554C59.3848 74.9437 58.4847 71.1019 55.3051 70.6049Z" fill="#4D7587"/>
<path d="M79.2575 100.288C79.2575 100.288 82.4323 99.6751 84.4429 98.3076C86.4547 96.9413 87.4477 96.2488 89.6442 96.527C89.6442 96.527 89.3714 103.373 89.2993 106.243L79.6538 105.748C79.655 105.749 78.8845 101.656 79.2575 100.288Z" fill="#EB986A"/>
<path d="M89.5171 97.4952C88.9301 102.066 88.754 105.346 88.754 105.346C88.754 105.346 78.2954 106.578 71.5178 104.801C62.3115 102.387 50.2532 100.39 50.2532 100.39C50.2532 106.814 52.9156 108.945 52.9156 108.945C85.4716 119.607 101.605 124.949 106.868 111.363C108.867 106.203 110.167 101.591 110.975 97.4952H89.5171V97.4952Z" fill="#EB986A"/>
<path d="M109.459 107.063C116.917 83.9566 105.584 71.7609 105.584 71.7609C91.8505 60.8175 90.7022 87.064 89.3007 99.2877C96.1015 100.085 103.653 103.374 109.459 107.063Z" fill="#81C6D6"/>
<path d="M79.258 100.288C79.258 100.288 60.7451 102.75 51.1217 102.613C41.4971 102.476 39.9464 103.022 39.9464 103.022C39.9464 103.022 40.2937 100.795 40.6337 97.4941H23.1541C22.7286 101.416 22.6307 105.31 23.1138 108.765C25.1243 123.116 39.3007 122.625 84.4005 105.539C84.4005 105.54 82.1307 106.44 79.258 100.288Z" fill="#EB986A"/>
<path d="M40.4182 101.937C41.6277 90.7766 43.2371 61.1992 29.1244 72.4464C29.1244 72.4464 20.5968 94.6684 22.6073 109.022C22.6171 109.082 32.6159 103.576 40.4182 101.937Z" fill="#81C6D6"/>
<path d="M39.1327 74.6261C39.3003 74.9112 39.4593 75.201 39.6085 75.4955C39.6806 75.6374 39.7503 75.7806 39.8176 75.9237C39.8543 76.0029 39.891 76.082 39.9264 76.1612C39.9888 76.2985 39.8726 76.0355 39.9325 76.1751C39.9497 76.2147 39.9668 76.2554 39.9851 76.295C40.2517 76.9165 40.4816 77.5531 40.6773 78.1979C40.8779 78.8566 41.0454 79.5235 41.1824 80.1961C41.2521 80.5371 41.3145 80.8793 41.3695 81.2226C41.3817 81.2971 41.3927 81.3728 41.405 81.4473C41.4123 81.4926 41.4184 81.5369 41.4245 81.5823C41.4294 81.6137 41.4551 81.7685 41.427 81.6009C41.4563 81.7813 41.4759 81.964 41.4967 82.1444C41.8232 84.9003 41.7498 87.6982 41.3915 90.4483C41.3805 90.5356 41.3683 90.6229 41.356 90.709C41.3512 90.7427 41.334 90.894 41.3548 90.7195C41.3475 90.7777 41.3377 90.8347 41.3304 90.8917C41.3047 91.0698 41.2766 91.249 41.2472 91.4271C41.1897 91.7844 41.1261 92.1405 41.0589 92.4966C40.9256 93.1903 40.7727 93.8804 40.5978 94.5659C40.5196 94.8755 40.7005 95.2421 41.0454 95.3166C41.3756 95.3887 41.7498 95.2223 41.8342 94.8906C42.5056 92.2511 42.8835 89.5312 42.9679 86.816C43.0559 83.9623 42.8162 81.062 42.0372 78.2979C41.6177 76.8094 41.0307 75.3535 40.2383 74.0069C40.0744 73.7276 39.6476 73.6112 39.3602 73.7881C39.0655 73.9732 38.9566 74.3281 39.1327 74.6261Z" fill="#008678"/>
<path d="M50.2534 100.39C50.2534 100.39 49.7569 100.632 48.4655 98.8559C47.1728 97.0776 45.0804 93.5954 41.0984 91.8858C37.119 90.1738 33.6605 90.0562 32.8057 91.5273C32.5757 91.9195 32.4865 93.2149 34.6768 92.4305C37.4321 91.4435 38.9852 92.704 39.1295 93.5931C39.2726 94.4811 39.1295 94.0703 36.4721 94.3438C33.8146 94.6184 31.8383 94.4811 32.6834 97.6258C33.526 100.768 33.0148 101.171 36.6861 100.564C40.3598 99.9593 41.4617 101.985 41.8029 102.779C41.8029 102.779 47.4651 102.371 50.58 102.608L50.2534 100.39Z" fill="#EB986A"/>
<path d="M89.3544 104.937C89.2419 102.875 89.2786 100.805 89.4425 98.7453C89.484 98.2169 89.5342 97.6886 89.5929 97.1614C89.6222 96.9007 89.6528 96.64 89.6846 96.3804C89.7005 96.2501 89.7176 96.1197 89.7347 95.9894C89.7433 95.9289 89.7506 95.8672 89.7592 95.8067C89.7641 95.7717 89.769 95.7368 89.7739 95.7019C89.7763 95.6856 89.7971 95.5413 89.7849 95.6263C89.7739 95.7007 89.7873 95.6135 89.7886 95.603C89.7934 95.5681 89.7983 95.5332 89.8032 95.4982C89.813 95.4284 89.824 95.3586 89.8338 95.2899C89.8534 95.1596 89.8729 95.0292 89.8937 94.8989C89.9365 94.6289 89.9806 94.3589 90.027 94.09C90.1163 93.5675 90.2141 93.0449 90.3193 92.5247C90.7461 90.3995 91.294 88.2965 91.9556 86.226C92.2822 85.203 92.6368 84.1894 93.0196 83.1838C93.2116 82.681 93.4097 82.1794 93.6164 81.6813C93.7167 81.4369 93.8194 81.1937 93.9246 80.9516C93.9772 80.8306 94.0285 80.7095 94.0823 80.5885C94.1068 80.5326 94.1313 80.4756 94.1569 80.4197C94.2046 80.3115 94.1655 80.3999 94.1557 80.4209C94.1741 80.3813 94.1912 80.3406 94.2095 80.301C95.0644 78.3935 96.0268 76.5279 97.1079 74.7263C97.2376 74.5098 97.3696 74.2933 97.5042 74.078C97.6754 73.8034 97.5788 73.396 97.2743 73.2424C96.9648 73.0876 96.5784 73.1679 96.3962 73.4612C95.2833 75.2535 94.2902 77.111 93.4073 79.015C92.4803 81.0133 91.6658 83.0569 90.9699 85.139C90.2802 87.2013 89.7042 89.2974 89.248 91.4167C88.7857 93.5616 88.4445 95.7322 88.2366 97.912C88.0373 99.9953 87.9627 102.091 88.0422 104.183C88.052 104.433 88.063 104.683 88.0764 104.933C88.0935 105.252 88.3589 105.56 88.7185 105.544C89.0462 105.534 89.374 105.279 89.3544 104.937Z" fill="#008678"/>
<path d="M41.5947 103.551C42.0777 103.451 42.5633 103.366 43.0524 103.293C43.1772 103.275 43.3031 103.259 43.4291 103.241C43.5049 103.231 43.4132 103.243 43.4034 103.245C43.4328 103.241 43.4609 103.238 43.4902 103.234C43.5575 103.226 43.6248 103.218 43.692 103.21C43.9317 103.182 44.1714 103.157 44.4123 103.135C45.3748 103.047 46.3422 103.002 47.3083 102.983C49.2687 102.941 51.2303 102.991 53.1906 102.957C55.1877 102.923 57.1836 102.821 59.1745 102.667C61.1973 102.511 63.2151 102.304 65.2293 102.068C67.2399 101.832 69.2602 101.629 71.2548 101.289C71.4957 101.249 71.7354 101.206 71.9739 101.16C72.3041 101.097 72.523 100.707 72.4215 100.41C72.3077 100.077 71.9861 99.916 71.6327 99.9836C71.1533 100.074 70.6714 100.156 70.1872 100.23C69.9352 100.269 69.6821 100.306 69.4289 100.341C69.3115 100.357 69.1953 100.373 69.0779 100.389C69.0192 100.397 68.9605 100.404 68.9031 100.412C68.8737 100.415 68.8444 100.42 68.815 100.423C68.8028 100.425 68.6817 100.441 68.7539 100.432C68.8272 100.422 68.7306 100.435 68.7221 100.435C68.6927 100.439 68.6634 100.442 68.634 100.446C68.5753 100.453 68.5166 100.461 68.4591 100.468C68.3332 100.483 68.206 100.499 68.08 100.514C67.8379 100.543 67.5957 100.571 67.3536 100.599C66.8558 100.656 66.3581 100.713 65.8616 100.774C63.845 101.017 61.8246 101.232 59.8007 101.399C57.8097 101.563 55.8127 101.679 53.8144 101.726C51.8466 101.772 49.8789 101.729 47.91 101.754C45.9251 101.778 43.9391 101.892 41.9848 102.236C41.7402 102.279 41.4968 102.325 41.2535 102.375C40.9245 102.443 40.7032 102.824 40.8059 103.126C40.9172 103.453 41.2425 103.623 41.5947 103.551Z" fill="#008678"/>
</g>
</svg>
