<svg width="68" height="68" viewBox="0 0 68 68" fill="none" xmlns="http://www.w3.org/2000/svg">
<path d="M25.4341 3.27679C26.1568 1.30838 28.0309 2.58691e-05 30.1278 6.47881e-05L38.0661 0.000212126C40.159 0.000250971 42.0305 1.30381 42.756 3.26695L63.8595 60.3705C65.0662 63.6355 62.6505 67.1037 59.1696 67.1037L9.1621 67.1037C5.68571 67.1037 3.2703 63.6439 4.46845 60.3805L25.4341 3.27679Z" fill="white"/>
<path d="M32.3564 25.2856H34.8357V32.6654H32.3564V25.2856Z" fill="#F55757"/>
<path d="M46.7329 40.8019L54.0294 39.3555L54.5153 41.7686L47.2188 43.215L46.7329 40.8019Z" fill="#F55757"/>
<path d="M42.6328 33.4383L47.8913 28.2209L49.6442 29.96L44.3856 35.1775L42.6328 33.4383Z" fill="#F55757"/>
<path d="M12.6973 41.7549L13.1832 39.3417L20.4797 40.7881L19.9938 43.2013L12.6973 41.7549Z" fill="#F55757"/>
<path d="M17.5425 29.9571L19.2953 28.218L24.5538 33.4354L22.801 35.1745L17.5425 29.9571Z" fill="#F55757"/>
<path d="M17.481 63.2109V67.104H49.7115V63.2109C49.7115 61.5145 48.3204 60.1343 46.6106 60.1343H20.5819C18.872 60.1343 17.481 61.5145 17.481 63.2109Z" fill="#F55757"/>
<path d="M42.8146 39.5896C42.5375 38.3291 41.8271 37.1893 40.8145 36.3801C39.8018 35.571 38.5279 35.1254 37.2276 35.1254H29.6307C26.9143 35.1254 24.556 37.0435 24.0233 39.6864L20.3975 57.6744H32.3565V54.6704C29.7605 54.1057 27.8111 51.8074 27.8111 49.0647C27.8111 45.8998 30.4063 43.325 33.5961 43.325C36.786 43.325 39.381 45.8998 39.381 49.0647C39.381 51.8074 37.4317 54.1057 34.8358 54.6704V57.6744C34.8358 57.6744 46.6678 57.6804 46.7947 57.689L42.8146 39.5896Z" fill="#F55757"/>
<path d="M33.5962 52.3446C35.4219 52.3446 36.9019 50.8761 36.9019 49.0647C36.9019 47.2533 35.4219 45.7848 33.5962 45.7848C31.7705 45.7848 30.2905 47.2533 30.2905 49.0647C30.2905 50.8761 31.7705 52.3446 33.5962 52.3446Z" fill="#F55757"/>
</svg>
